<svg width="220" height="226" viewBox="0 0 220 226" fill="none" xmlns="http://www.w3.org/2000/svg">
<g id="_&#227;&#131;&#172;&#227;&#130;&#164;&#227;&#131;&#164;&#227;&#131;&#188;_1" clip-path="url(#clip0_553_596)">
<g id="Group">
<path id="Vector" d="M158.112 18.7448H154.986C154.799 18.7448 154.649 18.5956 154.649 18.4089V16.7519C154.649 16.5653 154.799 16.416 154.986 16.416H163.843C164.03 16.416 164.179 16.5653 164.179 16.7519V18.4089C164.179 18.5956 164.03 18.7448 163.843 18.7448H160.716C160.716 18.7448 160.678 18.7598 160.678 18.7822V27.56C160.678 27.7466 160.529 27.8959 160.342 27.8959H158.487C158.3 27.8959 158.15 27.7466 158.15 27.56V18.7822C158.15 18.7822 158.135 18.7448 158.112 18.7448Z" fill="white"/>
<path id="Vector_2" d="M168.324 16.416H170.179C170.366 16.416 170.516 16.5653 170.516 16.7519V20.9169C170.516 20.9169 170.531 20.9542 170.553 20.9542H175.139C175.139 20.9542 175.176 20.9393 175.176 20.9169V16.7519C175.176 16.5653 175.326 16.416 175.513 16.416H177.368C177.555 16.416 177.705 16.5653 177.705 16.7519V27.56C177.705 27.7466 177.555 27.8959 177.368 27.8959H175.513C175.326 27.8959 175.176 27.7466 175.176 27.56V23.3278C175.176 23.3278 175.161 23.2905 175.139 23.2905H170.553C170.553 23.2905 170.516 23.3054 170.516 23.3278V27.56C170.516 27.7466 170.366 27.8959 170.179 27.8959H168.324C168.137 27.8959 167.987 27.7466 167.987 27.56V16.7519C167.987 16.5653 168.137 16.416 168.324 16.416Z" fill="white"/>
<path id="Vector_3" d="M185.918 16.334H187.803C187.938 16.334 188.058 16.4161 188.11 16.5355L192.756 27.4257C192.853 27.6497 192.688 27.896 192.449 27.896H190.541C190.407 27.896 190.28 27.8139 190.227 27.687L189.27 25.3432C189.27 25.3432 189.247 25.3208 189.232 25.3208H184.422C184.422 25.3208 184.392 25.3283 184.385 25.3432L183.427 27.687C183.375 27.8139 183.255 27.896 183.113 27.896H181.265C181.026 27.896 180.861 27.6497 180.959 27.4257L185.604 16.5355C185.656 16.4086 185.776 16.334 185.911 16.334H185.918ZM188.335 23.0368L186.868 19.4615C186.868 19.4615 186.809 19.4242 186.794 19.4615L185.327 23.0368C185.327 23.0368 185.335 23.0965 185.365 23.0965H188.297C188.297 23.0965 188.35 23.0667 188.335 23.0368Z" fill="white"/>
<path id="Vector_4" d="M195.83 16.416H197.663C197.767 16.416 197.865 16.4683 197.932 16.5504L203.146 23.3876C203.146 23.3876 203.221 23.4025 203.221 23.3652V16.7519C203.221 16.5653 203.37 16.416 203.558 16.416H205.383C205.57 16.416 205.719 16.5653 205.719 16.7519V27.56C205.719 27.7466 205.57 27.8959 205.383 27.8959H203.73C203.625 27.8959 203.528 27.8437 203.46 27.7616L198.059 20.693C198.059 20.693 197.984 20.6781 197.984 20.7154V27.56C197.984 27.7466 197.835 27.8959 197.648 27.8959H195.822C195.635 27.8959 195.486 27.7466 195.486 27.56V16.7519C195.486 16.5653 195.635 16.416 195.822 16.416H195.83Z" fill="white"/>
<path id="Vector_5" d="M210.201 16.4157H212.056C212.243 16.4157 212.392 16.565 212.392 16.7516V21.3271C212.392 21.3271 212.437 21.3793 212.467 21.3569L216.933 16.5202C217.001 16.453 217.09 16.4082 217.18 16.4082H219.349C219.649 16.4082 219.798 16.7665 219.589 16.9755L215.46 21.2524C215.46 21.2524 215.445 21.2898 215.46 21.3047L219.94 27.3507C220.105 27.5746 219.94 27.8881 219.671 27.8881H217.472C217.367 27.8881 217.262 27.8358 217.203 27.7463L213.769 23.0364C213.769 23.0364 213.724 23.014 213.709 23.0364L212.422 24.365C212.422 24.365 212.407 24.3799 212.407 24.3949V27.5522C212.407 27.7388 212.258 27.8881 212.071 27.8881H210.216C210.029 27.8881 209.879 27.7388 209.879 27.5522V16.7441C209.879 16.5575 210.029 16.4082 210.216 16.4082L210.201 16.4157Z" fill="white"/>
<path id="Vector_6" d="M158.322 40.7112L154.237 34.2846C154.095 34.0606 154.26 33.7695 154.522 33.7695H156.676C156.796 33.7695 156.908 33.8292 156.968 33.9337L159.579 38.3227C159.579 38.3227 159.631 38.3525 159.646 38.3227L162.309 33.9337C162.369 33.8367 162.481 33.7695 162.601 33.7695H164.673C164.942 33.7695 165.099 34.0606 164.957 34.2846L160.873 40.659C160.873 40.659 160.873 40.6739 160.873 40.6814V44.9061C160.873 45.0927 160.723 45.242 160.536 45.242H158.681C158.494 45.242 158.344 45.0927 158.344 44.9061V40.7261C158.344 40.7261 158.344 40.7112 158.344 40.7037L158.322 40.7112Z" fill="white"/>
<path id="Vector_7" d="M166.214 39.54V39.5102C166.214 36.2483 168.795 33.5762 172.349 33.5762C175.902 33.5762 178.445 36.2185 178.445 39.4803V39.5102C178.445 42.772 175.864 45.4442 172.311 45.4442C168.758 45.4442 166.214 42.8019 166.214 39.54ZM175.797 39.54V39.5102C175.797 37.5396 174.353 35.905 172.311 35.905C170.269 35.905 168.863 37.5098 168.863 39.4803V39.5102C168.863 41.4807 170.306 43.1154 172.349 43.1154C174.391 43.1154 175.797 41.5106 175.797 39.54Z" fill="white"/>
<g id="Group_2">
<path id="Vector_8" d="M180.951 40.3227V34.0976C180.951 33.911 181.1 33.7617 181.287 33.7617H183.143C183.33 33.7617 183.479 33.911 183.479 34.0976V40.2555C183.479 42.1216 184.414 43.0919 185.963 43.0919C187.511 43.0919 188.447 42.1589 188.447 40.3377V34.0976C188.447 33.911 188.596 33.7617 188.783 33.7617H190.638C190.825 33.7617 190.975 33.911 190.975 34.0976V40.2406C190.975 43.7189 189.023 45.4208 185.925 45.4208C182.828 45.4208 180.943 43.6965 180.943 40.3227H180.951Z" fill="white"/>
<path id="Vector_9" d="M196.054 45.1082C195.217 44.8245 194.79 44.2199 194.902 43.481C195.052 42.5032 196.144 41.9956 197.072 42.339C197.999 42.6823 198.426 43.3914 198.127 44.2722C197.827 45.1529 197.019 45.4366 196.054 45.1082ZM198.822 40.9208C198.598 41.488 198.052 41.697 197.356 41.4582C196.66 41.2193 196.309 40.7192 196.473 40.1221L198.254 33.6208C198.478 32.8147 199.234 32.6206 200.199 32.949C201.164 33.2775 201.687 33.9418 201.366 34.718L198.815 40.9208H198.822Z" fill="white"/>
</g>
</g>
<g id="THANK YOU!">
<g id="Group_3">
<path id="Vector_10" d="M213.716 103.558C208.42 101.147 199.593 98.3931 190.354 100.916C190.309 100.886 190.272 100.856 190.227 100.826C192.291 99.2813 194.401 98.4304 196.144 97.9602C198.5 97.3182 200.176 95.2432 200.266 92.8024C200.393 89.1002 196.9 86.316 193.309 87.2715C188.514 88.5553 182.23 91.5111 177.397 98.296C172.101 99.4381 167.762 103.133 165.728 108.014C157.992 108.604 139.919 111.829 121.262 128.429L128.96 134.684C143.203 122.226 158.067 119.726 165.256 119.3C167.373 125.906 173.575 130.698 180.906 130.698C182.544 130.698 184.123 130.452 185.619 130.011C187.19 132.534 188.746 135.684 189.928 138.304C190.952 140.558 193.563 141.618 195.875 140.715C198.358 139.745 199.525 136.901 198.433 134.475C197.588 132.594 196.503 130.34 195.291 128.115C196.585 129.496 197.812 130.914 198.86 132.191C200.423 134.094 203.206 134.46 205.203 133.012C207.38 131.444 207.784 128.369 206.086 126.302C205.173 125.189 204.104 123.928 202.922 122.637C204.208 123.353 205.54 124.107 206.871 124.868C209.198 126.197 212.16 125.398 213.507 123.092C214.876 120.756 214.068 117.755 211.711 116.412C208.001 114.292 203.101 111.552 199.51 109.731C203.505 110.007 207.141 111.291 209.677 112.448C211.854 113.441 214.419 112.724 215.758 110.754C217.457 108.253 216.484 104.835 213.731 103.581L213.716 103.558Z" fill="white"/>
<g id="Group_4">
<path id="Vector_11" d="M190.354 101.977C190.129 101.977 189.912 101.91 189.718 101.768L189.666 101.731C189.164 101.425 189.015 100.768 189.321 100.275C189.628 99.7752 190.286 99.6259 190.78 99.9319C190.847 99.9767 190.915 100.021 190.982 100.074C191.453 100.425 191.551 101.089 191.199 101.559C190.99 101.835 190.668 101.985 190.346 101.985L190.354 101.977Z" fill="black"/>
<path id="Vector_12" d="M180.89 131.757C173.253 131.757 166.557 126.883 164.231 119.628C164.051 119.068 164.358 118.478 164.919 118.299C165.48 118.12 166.079 118.426 166.251 118.986C168.293 125.36 174.173 129.645 180.883 129.645C182.387 129.645 183.868 129.428 185.297 129.003C185.858 128.839 186.449 129.152 186.621 129.712C186.793 130.272 186.471 130.861 185.91 131.033C184.287 131.518 182.596 131.765 180.89 131.765V131.757Z" fill="black"/>
<path id="Vector_13" d="M165.72 109.075C165.585 109.075 165.45 109.053 165.316 108.993C164.777 108.769 164.515 108.149 164.74 107.605C166.939 102.327 171.584 98.4609 177.165 97.2517C177.741 97.1248 178.302 97.4906 178.429 98.0653C178.557 98.6401 178.19 99.1999 177.614 99.3268C172.707 100.387 168.63 103.79 166.7 108.418C166.528 108.821 166.131 109.067 165.72 109.067V109.075Z" fill="black"/>
<path id="Vector_14" d="M189.972 102.081C189.665 102.081 189.358 101.946 189.149 101.693C188.775 101.237 188.842 100.573 189.291 100.2C189.388 100.118 189.493 100.043 189.59 99.9684C191.446 98.5801 193.555 97.5575 195.859 96.9305C197.789 96.408 199.128 94.7286 199.196 92.758V92.6013C199.196 91.2055 198.56 89.9142 197.445 89.0558C196.338 88.2049 194.924 87.9213 193.578 88.287C189.201 89.4589 182.985 92.2505 178.257 98.8936C177.92 99.3713 177.255 99.4833 176.776 99.1474C176.297 98.8115 176.185 98.1472 176.522 97.6695C181.616 90.5039 188.311 87.4958 193.024 86.2418C195.021 85.7119 197.101 86.1224 198.739 87.3764C200.378 88.6303 201.32 90.5337 201.32 92.6013C201.32 92.6759 201.32 92.758 201.32 92.8327C201.223 95.7362 199.255 98.2069 196.42 98.9757C194.385 99.528 192.515 100.431 190.862 101.67C190.78 101.73 190.712 101.782 190.645 101.834C190.451 101.999 190.211 102.073 189.972 102.073V102.081Z" fill="black"/>
<path id="Vector_15" d="M211.704 113.934C210.866 113.934 210.021 113.755 209.22 113.396C206.916 112.351 203.355 111.045 199.428 110.776C198.508 110.717 197.603 110.709 196.728 110.761C196.122 110.799 195.635 110.358 195.598 109.769C195.561 109.187 196.002 108.679 196.593 108.642C197.558 108.582 198.553 108.582 199.57 108.657C203.812 108.948 207.642 110.344 210.096 111.463C211.809 112.239 213.813 111.68 214.861 110.135C215.497 109.201 215.684 108.052 215.377 106.97C215.07 105.887 214.307 104.992 213.275 104.521C207.777 102.021 199.383 99.5428 190.631 101.931C190.504 101.961 190.391 101.999 190.279 102.028C189.718 102.193 189.127 101.879 188.955 101.319C188.783 100.76 189.105 100.17 189.666 99.9982C189.8 99.9534 189.943 99.9161 190.085 99.8787C199.436 97.326 208.338 99.9385 214.15 102.588C215.751 103.32 216.94 104.701 217.419 106.395C217.89 108.082 217.599 109.873 216.619 111.321C215.482 113.001 213.619 113.926 211.704 113.926V113.934Z" fill="black"/>
<path id="Vector_16" d="M209.25 126.549C208.255 126.549 207.245 126.303 206.325 125.773C205.001 125.019 203.669 124.265 202.383 123.548C202.368 123.541 202.36 123.533 202.345 123.526C200.116 122.279 197.947 121.093 196.084 120.107C195.568 119.831 195.373 119.189 195.642 118.674C195.912 118.159 196.555 117.965 197.079 118.234C198.971 119.234 201.163 120.436 203.415 121.697C203.43 121.697 203.437 121.712 203.452 121.72C204.732 122.436 206.056 123.175 207.38 123.929C209.19 124.959 211.524 124.34 212.571 122.533C213.088 121.645 213.23 120.615 212.96 119.622C212.698 118.637 212.055 117.808 211.165 117.301C207.612 115.278 202.622 112.479 199.009 110.65C198.485 110.389 198.276 109.747 198.545 109.225C198.814 108.702 199.45 108.493 199.974 108.762C203.624 110.613 208.651 113.427 212.22 115.465C213.604 116.256 214.599 117.54 215.01 119.077C215.421 120.615 215.205 122.227 214.404 123.601C213.304 125.482 211.3 126.541 209.25 126.541V126.549Z" fill="black"/>
<path id="Vector_17" d="M202.45 134.947C200.79 134.947 199.144 134.231 198.014 132.857C196.825 131.409 195.643 130.058 194.498 128.842C194.483 128.827 194.468 128.812 194.453 128.797C193.616 127.909 192.815 127.095 192.052 126.386C191.626 125.983 191.603 125.311 192.007 124.886C192.411 124.46 193.084 124.438 193.511 124.841C194.311 125.595 195.164 126.453 196.047 127.394C196.062 127.409 196.077 127.424 196.092 127.446C197.251 128.685 198.448 130.058 199.653 131.521C200.864 132.992 203.019 133.268 204.552 132.156C205.368 131.566 205.884 130.7 206.019 129.708C206.146 128.715 205.869 127.745 205.241 126.968C204.201 125.699 203.153 124.483 202.114 123.348C201.725 122.923 201.747 122.266 202.166 121.87C202.585 121.475 203.243 121.482 203.647 121.885C204.739 123.079 205.817 124.333 206.879 125.632C207.889 126.864 208.33 128.409 208.121 129.984C207.911 131.559 207.088 132.94 205.794 133.873C204.784 134.604 203.61 134.955 202.443 134.955L202.45 134.947Z" fill="black"/>
<path id="Vector_18" d="M194.161 142.097C191.977 142.097 189.897 140.843 188.947 138.738C187.922 136.461 186.351 133.199 184.706 130.572C184.399 130.072 184.549 129.422 185.05 129.116C185.551 128.81 186.202 128.96 186.509 129.46C188.207 132.192 189.823 135.543 190.877 137.872C191.663 139.611 193.683 140.432 195.47 139.73C196.398 139.365 197.116 138.663 197.49 137.738C197.864 136.819 197.849 135.812 197.438 134.909C196.413 132.632 195.373 130.52 194.333 128.624C194.318 128.594 194.303 128.557 194.288 128.527C194.236 128.4 194.206 128.258 194.206 128.109C194.206 127.527 194.677 127.049 195.268 127.049C195.687 127.049 196.046 127.288 196.219 127.638C197.273 129.572 198.336 131.729 199.375 134.035C200.026 135.476 200.056 137.073 199.458 138.536C198.859 139.999 197.715 141.126 196.241 141.701C195.553 141.97 194.85 142.097 194.154 142.097H194.161Z" fill="black"/>
<path id="Vector_19" d="M128.952 135.743C128.713 135.743 128.481 135.661 128.279 135.504L120.581 129.249C120.342 129.055 120.2 128.764 120.192 128.451C120.192 128.137 120.312 127.846 120.544 127.637C139.687 110.604 158.456 107.499 165.638 106.961C166.236 106.909 166.73 107.357 166.775 107.939C166.82 108.521 166.378 109.029 165.795 109.074C158.942 109.596 141.221 112.522 122.893 128.398L128.93 133.302C143.083 121.24 157.671 118.687 165.181 118.247C165.772 118.202 166.266 118.658 166.303 119.24C166.341 119.822 165.892 120.322 165.309 120.359C157.955 120.792 143.54 123.338 129.655 135.482C129.454 135.653 129.207 135.743 128.952 135.743Z" fill="black"/>
</g>
</g>
<path id="Vector_20" d="M104.184 202.994C98.3115 202.994 93.6959 199.621 90.6587 196.463C86.6715 192.321 84.4946 187.656 84.4722 187.603L84.6891 187.506C84.7116 187.551 86.881 192.186 90.8382 196.307C94.4813 200.091 100.421 204.204 108.074 202.27C115.727 200.337 119.415 192.418 121.165 186.118C122.916 179.803 123.117 173.802 123.14 172.862L101.513 174.489C101.842 175.146 103.107 177.743 103.944 180.527C105.254 184.886 104.947 187.603 103.032 188.611C101.895 189.208 100.765 189.32 99.6655 188.947C97.1071 188.081 95.6184 184.924 95.5586 184.789L95.7755 184.692C95.7755 184.692 97.2791 187.894 99.7478 188.73C100.78 189.081 101.85 188.969 102.927 188.409C107.251 186.133 101.289 174.563 101.229 174.444L101.147 174.287L101.326 174.272L123.387 172.615V172.742C123.387 172.809 123.304 179.311 121.397 186.185C119.631 192.552 115.899 200.546 108.141 202.509C106.772 202.853 105.456 203.009 104.199 203.009L104.184 202.994Z" fill="black"/>
<g id="Group_5">
<path id="Vector_21" d="M121.374 176.966C121.374 176.966 127.508 188.73 123.027 191.089C119.362 193.014 116.796 189.267 115.988 187.842C116.018 187.692 116.055 187.543 116.085 187.394C117.23 182.154 113.639 177.056 108.313 176.347C103.69 175.735 99.3435 178.668 98.1915 183.184C96.2166 190.909 93.8676 203.487 94.8551 217.041C95.1319 220.818 98.0269 223.879 101.782 224.371C106.181 224.946 110.213 221.833 110.737 217.437C111.35 212.287 112.278 206.636 113.273 201.262C117.095 204.352 122.1 206.502 128.152 204.979C143.076 201.217 143.308 175.324 143.308 175.324L121.374 176.974V176.966Z" fill="white"/>
<path id="Vector_22" d="M102.837 225.499C102.44 225.499 102.044 225.477 101.647 225.425C97.4058 224.872 94.1068 221.379 93.7926 217.125C92.8052 203.6 95.0793 191.067 97.1589 182.931C98.4456 177.9 103.301 174.624 108.455 175.31C111.29 175.684 113.856 177.244 115.502 179.572C117.147 181.909 117.738 184.842 117.132 187.626V187.671C118.135 189.321 120.027 191.478 122.541 190.164C125.219 188.761 122.279 181.006 120.439 177.468C120.274 177.154 120.282 176.773 120.454 176.467C120.626 176.154 120.948 175.952 121.299 175.93L143.233 174.28C143.532 174.258 143.824 174.362 144.041 174.564C144.257 174.765 144.377 175.049 144.377 175.348C144.377 175.616 144.295 182.036 142.357 189.037C139.732 198.509 134.914 204.383 128.421 206.018C123.394 207.287 118.554 206.324 114.02 203.159C113.04 208.578 112.292 213.422 111.799 217.58C111.514 219.983 110.303 222.126 108.387 223.611C106.779 224.858 104.849 225.522 102.844 225.522L102.837 225.499ZM107.093 177.326C103.428 177.326 100.144 179.804 99.2161 183.446C97.1739 191.433 94.9447 203.726 95.9097 216.968C96.149 220.23 98.6775 222.902 101.917 223.327C103.764 223.566 105.597 223.066 107.071 221.924C108.537 220.79 109.465 219.147 109.682 217.319C110.228 212.691 111.088 207.227 112.233 201.077C112.3 200.711 112.562 200.405 112.906 200.278C113.257 200.151 113.654 200.218 113.946 200.45C118.337 204.003 123.027 205.189 127.897 203.958C140.106 200.875 141.938 181.446 142.208 176.475L123.02 177.915C124.636 181.401 127.905 189.731 123.528 192.038C120.454 193.657 117.29 192.284 115.075 188.373C114.948 188.149 114.911 187.88 114.963 187.626L115.06 187.171C115.547 184.932 115.09 182.663 113.766 180.782C112.442 178.901 110.46 177.706 108.178 177.4C107.819 177.356 107.46 177.326 107.101 177.326H107.093Z" fill="black"/>
</g>
<g id="Group_6">
<path id="Vector_23" d="M75.6821 150.036L86.9031 161.367L70.9917 162.658C70.7224 162.68 70.5129 162.919 70.5353 163.188L71.261 172.048C71.2834 172.317 71.5228 172.526 71.7921 172.503L96.4934 170.495C98.7376 170.316 100.668 168.853 101.453 166.741C102.239 164.636 101.722 162.27 100.144 160.673L82.7289 143.087C82.5344 142.893 82.2202 142.893 82.0257 143.087L75.6895 149.334C75.495 149.529 75.495 149.842 75.6895 150.036H75.6821Z" fill="#00B1E7"/>
<path id="Vector_24" d="M71.7545 173.572C71.3879 173.572 71.0364 173.445 70.7521 173.206C70.4379 172.938 70.2434 172.564 70.206 172.146L69.4804 163.286C69.4504 162.876 69.5776 162.473 69.8469 162.152C70.1162 161.838 70.4903 161.644 70.9092 161.607L84.554 160.495L74.9338 150.784C74.3353 150.172 74.3353 149.194 74.9488 148.59L81.2849 142.335C81.5841 142.043 81.9806 141.909 82.3921 141.887C82.811 141.887 83.2 142.051 83.4917 142.35L100.907 159.935C102.769 161.816 103.383 164.638 102.455 167.116C101.535 169.594 99.2311 171.34 96.5904 171.557L71.8966 173.565C71.8517 173.565 71.8069 173.565 71.7695 173.565L71.7545 173.572ZM71.6423 163.675L72.2781 171.415L96.4109 169.452C98.2362 169.303 99.8221 168.101 100.465 166.392C101.101 164.682 100.682 162.734 99.3957 161.435L82.3771 144.253L76.8414 149.709L87.666 160.637C87.9577 160.928 88.0475 161.361 87.9053 161.749C87.7632 162.137 87.4041 162.406 87.0002 162.436L71.6498 163.682L71.6423 163.675Z" fill="black"/>
</g>
<g id="Group_7">
<path id="Vector_25" d="M151.567 157.198C146.375 132.484 124.733 123.035 124.733 123.035H91.7883L92.4615 125.849C77.5675 116.489 64.4314 114.287 58.0129 113.802C55.8435 108.607 51.2354 104.688 45.6099 103.471C40.4781 96.2609 33.8054 93.1185 28.7035 91.76C24.8884 90.7448 21.1779 93.7007 21.3126 97.6343C21.4023 100.224 23.1828 102.434 25.6888 103.113C27.5365 103.613 29.7882 104.524 31.9801 106.158C31.9352 106.188 31.8903 106.226 31.8454 106.255C22.0232 103.576 12.6499 106.502 7.01696 109.062C4.092 110.391 3.05966 114.026 4.86251 116.683C6.28385 118.78 9.02179 119.534 11.3258 118.489C14.0189 117.265 17.8789 115.892 22.128 115.601C18.3053 117.534 13.1062 120.445 9.16392 122.699C6.66536 124.125 5.80508 127.319 7.25634 129.805C8.69263 132.261 11.8345 133.104 14.3106 131.693C15.7245 130.887 17.1383 130.088 18.5073 129.327C17.258 130.701 16.1135 132.044 15.1485 133.223C13.3456 135.425 13.772 138.687 16.0836 140.359C18.2081 141.897 21.163 141.509 22.8237 139.486C23.9383 138.135 25.2325 136.627 26.6089 135.164C25.3222 137.53 24.1702 139.919 23.2725 141.919C22.113 144.494 23.3473 147.525 25.988 148.555C28.4417 149.51 31.2245 148.391 32.3092 145.995C33.566 143.218 35.2192 139.859 36.8874 137.187C38.4733 137.657 40.1565 137.918 41.8995 137.918C49.6869 137.918 56.2774 132.835 58.5216 125.812C66.1594 126.267 81.9512 128.924 97.0846 142.158L97.1445 142.106C98.6556 145.233 100.773 150.548 100.623 155.571C100.399 162.961 97.0248 173.022 103.166 178.591C104.52 182.218 105.702 187.1 102.987 188.525C99.3214 190.451 96.7555 186.704 95.9476 185.279C95.9775 185.129 96.0149 184.98 96.0448 184.831C97.1894 179.591 93.5986 174.493 88.2724 173.784C83.6493 173.172 79.303 176.105 78.151 180.621C76.1761 188.346 73.8271 200.923 74.8146 214.478C75.0914 218.255 77.9864 221.316 81.7417 221.808C86.1404 222.383 90.1725 219.27 90.6961 214.874C91.3095 209.724 92.2371 204.073 93.2321 198.699C97.0547 201.789 102.059 203.939 108.111 202.416C116.235 200.364 120.006 191.757 121.756 184.338C136.014 188.19 156.698 181.658 151.574 157.236L151.567 157.198Z" fill="white"/>
<path id="Vector_26" d="M82.7892 222.912C82.3927 222.912 81.9962 222.89 81.5998 222.837C77.3582 222.285 74.0592 218.792 73.7525 214.537C72.765 201.012 75.0392 188.48 77.1188 180.344C78.4055 175.313 83.2605 172.036 88.4147 172.723C91.2499 173.096 93.8158 174.649 95.4615 176.985C97.1073 179.321 97.6982 182.255 97.0923 185.039V185.084C98.0947 186.733 99.9873 188.89 102.501 187.577C104.012 186.778 103.93 183.725 102.269 179.187C97.4065 174.582 98.2817 167.431 99.0522 161.109C99.2916 159.131 99.5235 157.257 99.5759 155.533C99.718 150.831 97.7132 145.755 96.3816 142.933C82.1084 130.461 67.3116 127.52 59.2699 126.915C56.5918 134.163 49.7095 138.97 41.9072 138.97C40.3811 138.97 38.8625 138.783 37.3888 138.41C35.7879 141.082 34.2918 144.202 33.2894 146.427C31.9728 149.338 28.599 150.711 25.6142 149.539C24.0657 148.935 22.8613 147.755 22.2329 146.218C21.6045 144.68 21.6344 143.001 22.3152 141.485C22.3376 141.426 22.3676 141.373 22.39 141.314C20.3403 142.702 17.5649 142.732 15.4703 141.217C14.1163 140.239 13.2486 138.783 13.0316 137.126C12.8371 135.663 13.1812 134.23 13.9892 133.021C11.1839 134.096 7.90735 133.006 6.35136 130.341C5.50604 128.893 5.28162 127.206 5.7155 125.587C6.14938 123.967 7.1892 122.623 8.64794 121.787C10.5555 120.698 12.8596 119.399 15.1786 118.123C13.8844 118.555 12.7324 119.026 11.7824 119.459C8.99205 120.728 5.7155 119.817 3.99494 117.287C2.96261 115.764 2.6559 113.875 3.1571 112.106C3.65831 110.33 4.90759 108.874 6.59075 108.113C11.3784 105.934 18.1559 103.776 25.5917 104.187C25.5394 104.172 25.487 104.157 25.4272 104.142C22.4424 103.336 20.3702 100.739 20.2655 97.6782C20.1907 95.4613 21.1482 93.3938 22.8837 92.0129C24.6192 90.632 26.8485 90.1767 28.9955 90.744C33.9178 92.0577 40.8748 95.1702 46.2534 102.537C51.7742 103.859 56.3823 107.658 58.7462 112.808C65.1871 113.375 77.1787 115.562 90.8609 123.631L90.7786 123.288C90.7038 122.974 90.7786 122.638 90.9806 122.385C91.1825 122.131 91.4893 121.982 91.8109 121.982H124.756C124.906 121.982 125.048 122.011 125.182 122.071C125.407 122.168 147.385 132.036 152.629 156.988C155.247 169.439 151.118 176.448 147.206 180.135C140.593 186.367 130.269 187.36 122.557 185.591C119.983 195.571 115.098 201.721 108.396 203.416C103.369 204.685 98.5286 203.722 93.9953 200.557C93.0153 205.968 92.2747 210.813 91.781 214.978C91.4967 217.381 90.2849 219.523 88.3698 221.009C86.7614 222.255 84.8314 222.919 82.8266 222.919L82.7892 222.912ZM87.0457 174.738C83.3802 174.738 80.0961 177.216 79.1685 180.851C77.1263 188.838 74.8971 201.132 75.8621 214.373C76.1014 217.635 78.6299 220.307 81.8691 220.732C83.7243 220.971 85.5496 220.479 87.0233 219.329C88.4895 218.195 89.4171 216.553 89.634 214.724C90.1876 210.089 91.0404 204.625 92.185 198.482C92.2523 198.116 92.5141 197.81 92.8582 197.683C93.2098 197.549 93.6063 197.623 93.8906 197.855C98.2817 201.408 102.972 202.595 107.842 201.363C115.57 199.415 119.108 190.883 120.716 184.069C120.784 183.792 120.956 183.546 121.203 183.404C121.449 183.255 121.749 183.218 122.025 183.292C129.259 185.248 139.396 184.554 145.717 178.597C150.774 173.843 152.435 166.52 150.527 157.421C145.777 134.783 126.634 125.109 124.502 124.094H93.135L93.4941 125.602C93.5913 126.02 93.4268 126.46 93.0826 126.706C92.731 126.953 92.2672 126.968 91.9007 126.744C77.231 117.533 64.3268 115.346 57.9308 114.861C57.5343 114.831 57.1827 114.577 57.0331 114.211C54.9685 109.27 50.6147 105.642 45.3857 104.508C45.1238 104.456 44.8994 104.299 44.7423 104.082C39.7003 96.9915 33.0874 94.0282 28.4269 92.7817C26.9383 92.3861 25.3972 92.7071 24.1854 93.6625C22.9735 94.6254 22.3152 96.0585 22.3675 97.5961C22.4424 99.7159 23.8861 101.522 25.9583 102.09C28.3895 102.746 30.6262 103.829 32.6012 105.314C32.8779 105.516 33.035 105.844 33.0276 106.187C33.0201 106.531 32.848 106.844 32.5637 107.038L32.4815 107.098C32.2196 107.285 31.8531 107.367 31.5464 107.285C22.2179 104.739 13.286 107.374 7.44355 110.039C6.32892 110.546 5.50604 111.509 5.17689 112.681C4.84774 113.853 5.04972 115.1 5.73047 116.1C6.86753 117.772 9.02946 118.369 10.8772 117.533C13.488 116.346 17.55 114.861 22.0459 114.555C22.5396 114.532 23.0109 114.846 23.1381 115.331C23.2727 115.816 23.0483 116.331 22.592 116.555C18.7319 118.511 13.4356 121.481 9.6728 123.624C8.70779 124.176 8.01956 125.064 7.73529 126.132C7.45103 127.199 7.60064 128.319 8.15421 129.274C9.29128 131.222 11.8048 131.894 13.7647 130.782C15.1786 129.976 16.5999 129.177 17.9689 128.408C18.4252 128.154 18.9938 128.266 19.3154 128.669C19.6371 129.073 19.6221 129.655 19.2705 130.043C18.1709 131.252 17.0488 132.551 15.9491 133.894C15.2684 134.73 14.9617 135.783 15.1038 136.85C15.2459 137.925 15.807 138.865 16.6822 139.5C18.3429 140.702 20.6769 140.403 21.9786 138.813C23.2727 137.246 24.5594 135.768 25.8087 134.439C26.1752 134.051 26.7737 133.991 27.2076 134.305C27.6414 134.618 27.7761 135.201 27.5218 135.671C26.4221 137.679 25.3149 139.925 24.2228 142.351C23.7814 143.329 23.759 144.419 24.1704 145.412C24.5744 146.404 25.3524 147.173 26.3548 147.561C28.2848 148.315 30.4692 147.434 31.322 145.546C32.4441 143.075 34.1571 139.515 35.9675 136.611C36.2218 136.208 36.7155 136.022 37.1719 136.156C38.6979 136.611 40.2838 136.843 41.8772 136.843C49.0363 136.843 55.3126 132.275 57.4895 125.467C57.6391 125.005 58.1029 124.706 58.5667 124.736C66.6159 125.214 82.3179 127.975 97.4738 141.082C97.7431 141.172 97.9601 141.366 98.0872 141.627C99.8078 145.18 101.82 150.487 101.67 155.585C101.618 157.406 101.379 159.317 101.132 161.348C100.376 167.528 99.5983 173.917 103.862 177.784C103.99 177.896 104.087 178.037 104.147 178.202C106.398 184.24 106.166 188.017 103.466 189.443C100.391 191.055 97.227 189.689 95.0127 185.778C94.8855 185.554 94.8406 185.285 94.9005 185.031L94.9977 184.584C95.4839 182.344 95.0276 180.075 93.7035 178.194C92.3795 176.313 90.3971 175.119 88.1155 174.813C87.7564 174.768 87.3973 174.738 87.0382 174.738H87.0457Z" fill="black"/>
</g>
<g id="Group_8">
<path id="Vector_27" d="M178.863 89.519C177.861 72.2917 152.053 59.4906 119.459 59.0428C107.909 26.5139 78.4499 9.45081 62.1046 2.21803C55.8432 -0.551173 48.4897 1.85975 45.1234 7.8087C41.211 14.7205 44.2032 23.4835 51.5343 26.5662C65.1193 32.2762 85.7885 43.0172 101.042 60.0877C100.518 60.1549 99.9943 60.2221 99.4707 60.2967C73.0189 34.5752 33.0495 36.0307 12.3354 38.9716C4.91459 40.0241 -0.112448 47.0702 1.30141 54.4224C2.69282 61.6701 9.80696 66.3353 17.0333 64.7528C32.9747 61.2671 60.1072 57.3036 79.1381 64.9992C58.3044 71.9483 44.5474 84.1448 45.3029 97.2294C46.3951 116.076 77.1782 129.631 114.058 127.497C150.938 125.369 179.948 108.359 178.856 89.5115L178.863 89.519Z" fill="white"/>
<path id="Vector_28" d="M106.428 128.78C91.2795 128.78 77.0886 126.152 65.8376 121.204C52.4696 115.322 44.8019 106.828 44.2483 97.2958C43.5152 84.6888 55.6115 72.455 76.0039 64.9759C57.1301 58.6762 31.3591 62.7068 17.2654 65.7895C13.4802 66.618 9.62016 65.9015 6.3885 63.7817C3.16432 61.6618 0.987434 58.4075 0.261806 54.6306C-0.478784 50.7865 0.366536 46.9126 2.64815 43.718C4.92228 40.5382 8.31104 38.4781 12.186 37.9258C31.6434 35.164 66.3314 33.8802 92.4914 53.0258C78.8915 40.7472 62.9651 32.5292 51.1156 27.5431C47.3454 25.9532 44.4204 22.8332 43.0963 18.9668C41.7722 15.1003 42.1687 10.8458 44.1885 7.28536C47.8466 0.836318 55.7312 -1.76121 62.5237 1.24685C79.0336 8.55427 108.373 25.6024 120.2 57.9969C135.947 58.3029 150.579 61.5051 161.478 67.0435C172.857 72.8208 179.41 80.785 179.911 89.4584C180.464 98.9901 173.829 108.305 161.232 115.695C148.851 122.95 132.117 127.526 114.118 128.563C111.53 128.712 108.964 128.787 106.42 128.787L106.428 128.78ZM52.0881 59.5345C61.6784 59.5345 71.3584 60.7064 79.5348 64.013C79.9463 64.1773 80.2081 64.5878 80.2006 65.0282C80.1856 65.4686 79.9014 65.8567 79.475 65.9985C58.342 73.0447 45.6547 84.9874 46.3654 97.1689C46.8666 105.865 54.0855 113.709 66.6904 119.263C79.5273 124.913 96.3215 127.466 113.998 126.443C131.668 125.421 148.066 120.957 160.162 113.866C172.041 106.902 178.303 98.281 177.801 89.5778C176.851 73.2164 151.768 60.5422 119.444 60.1018C119.003 60.1018 118.607 59.8107 118.457 59.3927C107.064 27.3043 77.9938 10.3979 61.6709 3.18007C55.8734 0.619857 49.1557 2.82925 46.0437 8.32288C44.3231 11.3533 43.9865 14.9809 45.1161 18.2726C46.2382 21.5643 48.7293 24.229 51.946 25.58C66.3389 31.6335 86.6789 42.4043 101.827 59.3778C102.089 59.6689 102.164 60.0869 102.029 60.4526C101.895 60.8184 101.558 61.0796 101.169 61.1319C100.645 61.1991 100.129 61.2662 99.613 61.3409C99.2839 61.3857 98.9622 61.2812 98.7228 61.0498C72.7423 35.7836 33.5435 37.0301 12.4853 40.0232C9.18629 40.4934 6.30621 42.2401 4.37619 44.9421C2.43869 47.6516 1.71306 50.9507 2.34144 54.2201C2.96234 57.4371 4.81007 60.1988 7.55549 62.0052C10.3009 63.8115 13.5924 64.4161 16.8091 63.7145C25.5541 61.8036 38.7351 59.5345 52.0881 59.5345Z" fill="black"/>
</g>
<g id="Group_9">
<g id="Group_10">
<path id="Vector_29" d="M134.167 100.24C140.872 98.0452 144.745 91.5127 142.817 85.6489C140.889 79.7852 133.891 76.8106 127.186 79.0051C120.481 81.1995 116.608 87.732 118.536 93.5958C120.463 99.4596 127.462 102.434 134.167 100.24Z" fill="white"/>
<path id="Vector_30" d="M129.685 102.009C127.77 102.009 125.885 101.635 124.149 100.896C120.91 99.523 118.561 97.0374 117.536 93.91C115.427 87.5057 119.616 80.3625 126.865 77.9889C134.114 75.6153 141.729 78.8995 143.831 85.3038C145.941 91.708 141.751 98.8512 134.503 101.225C132.917 101.747 131.286 102.001 129.685 102.001V102.009ZM131.66 79.3324C130.306 79.3324 128.907 79.5489 127.523 80.0042C121.389 82.0121 117.806 87.961 119.549 93.2531C120.387 95.7909 122.317 97.8212 124.98 98.9483C127.695 100.105 130.845 100.195 133.837 99.217C139.971 97.2091 143.554 91.2602 141.811 85.9681C140.465 81.8628 136.313 79.3399 131.66 79.3399V79.3324Z" fill="black"/>
</g>
<path id="Vector_31" d="M137.862 79.8088C137.6 79.7864 137.331 79.7715 137.054 79.7715C131.907 79.7715 127.74 83.929 127.74 89.0644C127.74 94.1997 131.907 98.3573 137.054 98.3573C137.368 98.3573 137.675 98.3423 137.974 98.3125C142.238 95.3194 144.34 90.2586 142.814 85.6234C141.976 83.0706 140.173 81.0703 137.854 79.8013L137.862 79.8088Z" fill="black"/>
</g>
<path id="Vector_32" d="M101.715 99.5709C101.453 99.5709 101.184 99.5111 100.93 99.3842C88.3919 93.1442 79.6994 98.0258 79.3328 98.2348C78.4875 98.7274 77.4103 98.4438 76.9165 97.6003C76.4228 96.7643 76.6996 95.6895 77.5374 95.1894C77.9638 94.9356 88.1675 89.0762 102.508 96.2194C103.383 96.6524 103.735 97.7123 103.301 98.5856C102.994 99.2051 102.366 99.5634 101.715 99.5634V99.5709Z" fill="black"/>
<g id="Group_11">
<path id="Vector_33" d="M31.9651 106.156C31.9202 106.186 31.8753 106.216 31.8305 106.253C31.9651 106.29 32.0998 106.327 32.2344 106.365C32.1446 106.29 32.0549 106.223 31.9651 106.156C29.7733 104.521 27.529 103.611 25.6813 103.11C23.1753 102.431 21.3874 100.222 21.3051 97.6317C21.3051 97.5645 21.3051 97.4899 21.3051 97.4227C21.3051 93.5861 24.9557 90.7572 28.7035 91.7574C33.7979 93.1234 40.4781 96.2583 45.6099 103.469C51.2354 104.685 55.851 108.612 58.0129 113.799C66.2342 114.426 85.4372 117.86 105.261 135.49L97.0846 142.141C81.9512 128.907 66.1594 126.249 58.5216 125.794C56.2774 132.818 49.6794 137.901 41.892 137.901C40.149 137.901 38.4658 137.647 36.8799 137.169C35.2117 139.849 33.5585 143.2 32.3017 145.977C31.217 148.373 28.4417 149.5 25.9805 148.537C23.3399 147.507 22.0981 144.484 23.265 141.902C24.1627 139.909 25.3073 137.52 26.594 135.162C25.225 136.625 23.9308 138.125 22.8162 139.476C21.1555 141.499 18.2006 141.887 16.0761 140.349C13.7646 138.677 13.3382 135.415 15.141 133.213C16.106 132.034 17.2431 130.698 18.4998 129.325C17.1309 130.086 15.717 130.885 14.3032 131.691C11.8345 133.101 8.68515 132.251 7.24886 129.802C5.7976 127.317 6.6504 124.13 9.15644 122.696C13.0988 120.45 18.2979 117.539 22.1205 115.598C17.8715 115.889 14.0114 117.255 11.3258 118.487C9.01431 119.539 6.28385 118.778 4.86251 116.68C3.05966 114.023 4.092 110.388 7.01696 109.059C12.6424 106.499 22.0233 103.566 31.8379 106.245" fill="white"/>
<g id="Group_12">
<path id="Vector_34" d="M32.2346 107.424C32.1299 107.424 32.0326 107.41 31.9279 107.38C31.8082 107.342 31.681 107.305 31.5613 107.275C31.1649 107.171 30.8656 106.85 30.7908 106.454C30.716 106.058 30.8731 105.648 31.2023 105.402L31.3668 105.282C31.8082 104.984 32.3917 105.051 32.7433 105.431C33.1772 105.663 33.4016 106.178 33.252 106.671C33.1098 107.126 32.6909 107.424 32.2346 107.424Z" fill="black"/>
<path id="Vector_35" d="M41.8845 138.962C40.0741 138.962 38.2788 138.7 36.5657 138.185C36.0046 138.021 35.683 137.424 35.855 136.864C36.0271 136.304 36.618 135.991 37.1791 136.155C38.6977 136.61 40.2761 136.842 41.8845 136.842C49.051 136.842 55.3273 132.274 57.5042 125.466C57.6837 124.907 58.2822 124.601 58.8357 124.78C59.3968 124.959 59.7035 125.556 59.524 126.108C57.0628 133.796 49.9786 138.954 41.8845 138.954V138.962Z" fill="black"/>
<path id="Vector_36" d="M58.0054 114.859C57.5864 114.859 57.1974 114.613 57.0254 114.21C54.9607 109.261 50.6069 105.633 45.3779 104.506C44.8019 104.379 44.4428 103.819 44.5625 103.245C44.6897 102.677 45.2508 102.304 45.8268 102.431C51.7365 103.707 56.6588 107.805 58.9853 113.396C59.2097 113.933 58.9554 114.553 58.4168 114.777C58.2821 114.829 58.1475 114.859 58.0128 114.859H58.0054Z" fill="black"/>
<path id="Vector_37" d="M32.2342 107.425C31.9949 107.425 31.763 107.343 31.561 107.187C31.4862 107.127 31.4114 107.067 31.3366 107.015C29.5711 105.694 27.5812 104.731 25.4044 104.141C22.4196 103.335 20.3474 100.738 20.2427 97.6773C20.2427 97.5952 20.2427 97.5131 20.2427 97.431C20.2427 95.2664 21.2301 93.2585 22.9582 91.9373C24.6787 90.6162 26.8706 90.1833 28.9727 90.7431C33.9698 92.0792 41.069 95.2664 46.47 102.857C46.8067 103.335 46.6944 103.999 46.2157 104.335C45.7369 104.671 45.0786 104.559 44.7345 104.082C39.7 96.998 33.0796 94.0273 28.4191 92.7808C26.9603 92.3926 25.4418 92.6912 24.2449 93.6093C23.0479 94.5274 22.3597 95.9157 22.3597 97.4235V97.5952C22.4345 99.7225 23.8783 101.521 25.9579 102.089C28.3892 102.745 30.6259 103.828 32.6008 105.306C32.698 105.38 32.8028 105.455 32.9075 105.545C33.3638 105.918 33.4237 106.582 33.0571 107.037C32.8477 107.291 32.541 107.425 32.2342 107.425Z" fill="black"/>
<path id="Vector_38" d="M9.14897 120.017C7.12918 120.017 5.17672 119.04 3.97981 117.278C2.94747 115.755 2.64076 113.859 3.14197 112.09C3.64317 110.321 4.89245 108.866 6.57561 108.097C12.7397 105.291 22.1804 102.514 32.1147 105.223C32.6833 105.38 33.0124 105.962 32.8553 106.522C32.6982 107.089 32.1222 107.418 31.5537 107.261C22.2327 104.716 13.3008 107.358 7.45085 110.015C6.33623 110.523 5.51335 111.478 5.1842 112.65C4.85505 113.822 5.05703 115.069 5.73777 116.076C6.86736 117.748 9.03676 118.345 10.8845 117.509C13.4953 116.323 17.5498 114.837 22.0532 114.531L22.128 115.591V116.651C18.0211 116.935 14.2209 118.323 11.7672 119.443C10.9219 119.831 10.0317 120.01 9.14897 120.01V120.017Z" fill="black"/>
<path id="Vector_39" d="M11.7526 133.422C9.59814 133.422 7.48858 132.31 6.33656 130.332C5.49124 128.884 5.26682 127.197 5.7007 125.577C6.13458 123.957 7.17439 122.606 8.63313 121.778C12.4258 119.613 17.7596 116.627 21.6421 114.657C21.7917 114.582 21.9563 114.545 22.1208 114.545C22.7043 114.545 23.1831 115.015 23.1831 115.605C23.1831 116.038 22.9288 116.403 22.5547 116.568C18.7096 118.516 13.4357 121.472 9.68043 123.614C8.71542 124.166 8.02719 125.054 7.74293 126.122C7.45866 127.189 7.60828 128.309 8.16185 129.264C9.29891 131.205 11.8124 131.884 13.7724 130.772C15.1713 129.973 16.5702 129.182 17.9242 128.428C17.9541 128.406 17.9915 128.383 18.0289 128.369C20.5349 126.965 22.8614 125.696 24.7166 124.719C25.2328 124.442 25.8762 124.644 26.1529 125.159C26.4297 125.674 26.2277 126.316 25.7116 126.592C23.8863 127.555 21.5897 128.809 19.0762 130.212C19.0538 130.227 19.0313 130.242 19.0089 130.257C17.6399 131.011 16.2335 131.81 14.8197 132.616C13.8472 133.168 12.7924 133.429 11.7451 133.429L11.7526 133.422Z" fill="black"/>
<path id="Vector_40" d="M18.9787 142.349C17.7519 142.349 16.5175 141.976 15.4553 141.215C14.1013 140.237 13.2335 138.782 13.0166 137.125C12.7996 135.467 13.2634 133.848 14.3182 132.556C15.4478 131.176 16.5924 129.847 17.7145 128.623C17.8042 128.526 17.909 128.444 18.0286 128.384C18.5523 128.123 19.1882 128.332 19.45 128.854C19.6594 129.272 19.5697 129.757 19.2555 130.071C18.1633 131.265 17.0562 132.549 15.9565 133.9C15.2757 134.736 14.9765 135.788 15.1112 136.856C15.2533 137.931 15.8144 138.871 16.6896 139.506C18.3578 140.707 20.6843 140.409 21.9859 138.819C23.2876 137.244 24.5593 135.788 25.7787 134.482C25.8011 134.46 25.8161 134.437 25.8385 134.415C26.7287 133.46 27.6339 132.541 28.5016 131.728C28.928 131.325 29.6013 131.347 30.0053 131.773C30.4092 132.198 30.3868 132.87 29.9604 133.273C29.1375 134.049 28.2697 134.923 27.3945 135.863C27.372 135.885 27.3571 135.908 27.3346 135.93C26.1602 137.184 24.9109 138.617 23.6242 140.17C22.4423 141.61 20.7142 142.364 18.9637 142.364L18.9787 142.349Z" fill="black"/>
<path id="Vector_41" d="M27.7906 149.942C27.0575 149.942 26.3169 149.808 25.5987 149.524C24.0427 148.919 22.8458 147.733 22.2174 146.195C21.5891 144.657 21.619 142.978 22.3072 141.463C23.4368 138.962 24.5664 136.671 25.6735 134.648C25.6885 134.618 25.7034 134.588 25.7259 134.566C25.7633 134.506 25.8082 134.454 25.8605 134.402C26.272 133.991 26.9452 133.991 27.3642 134.402C27.7158 134.752 27.7681 135.29 27.5213 135.693C26.4515 137.663 25.3519 139.895 24.2447 142.329C23.8033 143.306 23.7809 144.396 24.1923 145.389C24.5963 146.389 25.3743 147.15 26.3842 147.546C28.3142 148.3 30.4986 147.419 31.3514 145.531C32.466 143.068 34.1716 139.522 35.9969 136.596C36.3036 136.096 36.9619 135.947 37.4556 136.253C37.9568 136.559 38.1065 137.216 37.7997 137.708C36.0418 140.53 34.3736 143.993 33.2889 146.397C32.2865 148.606 30.1096 149.927 27.813 149.927L27.7906 149.942Z" fill="black"/>
<path id="Vector_42" d="M105.253 136.551C104.999 136.551 104.752 136.461 104.55 136.282C84.7113 118.629 65.3363 115.419 57.9304 114.86C57.3469 114.815 56.9055 114.307 56.9504 113.725C56.9953 113.143 57.489 112.702 58.0875 112.747C65.7103 113.322 85.6389 116.621 105.964 134.699C106.398 135.088 106.443 135.759 106.046 136.192C105.837 136.424 105.545 136.543 105.253 136.543V136.551Z" fill="black"/>
<path id="Vector_43" d="M97.0775 143.195C96.8306 143.195 96.5838 143.105 96.3818 142.933C81.6149 130.02 66.2794 127.311 58.4546 126.848C57.8711 126.811 57.4223 126.311 57.4597 125.729C57.4971 125.146 57.9908 124.706 58.5818 124.736C66.6834 125.221 82.5425 128.013 97.7807 141.344C98.222 141.732 98.2669 142.396 97.8779 142.836C97.6685 143.075 97.3767 143.195 97.0775 143.195Z" fill="black"/>
</g>
</g>
</g>
</g>
<defs>
<clipPath id="clip0_553_596">
<rect width="220" height="225.5" fill="white"/>
</clipPath>
</defs>
</svg>
