<svg width="36" height="36" viewBox="0 0 36 36" fill="none" xmlns="http://www.w3.org/2000/svg">
<g id="&#227;&#130;&#162;&#227;&#130;&#164;&#227;&#130;&#179;&#227;&#131;&#179;" clip-path="url(#clip0_553_739)">
<g id="Group 52">
<g id="Group 51">
<path id="Vector" d="M18.0972 35.8496C27.9444 35.8496 35.9272 27.8668 35.9272 18.0195C35.9272 8.17225 27.9444 0.189453 18.0972 0.189453C8.24988 0.189453 0.26709 8.17225 0.26709 18.0195C0.26709 27.8668 8.24988 35.8496 18.0972 35.8496Z" fill="#00B1E7"/>
<g id="Clip path group">
<mask id="mask0_553_739" style="mask-type:luminance" maskUnits="userSpaceOnUse" x="0" y="0" width="36" height="36">
<g id="clippath">
<path id="Vector_2" d="M18.0972 35.8476C27.9444 35.8476 35.9272 27.8648 35.9272 18.0176C35.9272 8.17029 27.9444 0.1875 18.0972 0.1875C8.24988 0.1875 0.26709 8.17029 0.26709 18.0176C0.26709 27.8648 8.24988 35.8476 18.0972 35.8476Z" fill="white"/>
</g>
</mask>
<g mask="url(#mask0_553_739)">
<g id="Group">
<g id="Group_2">
<g id="Group_3">
<path id="Vector_3" d="M23.6845 16.4522C23.6129 16.442 23.5733 16.3628 23.6104 16.2989L31.9562 1.82657C33.4243 -0.719856 32.397 -3.97667 29.733 -5.21858C26.8186 -6.57803 23.397 -4.87999 22.7173 -1.73689L18.8791 15.9871C18.8689 16.0344 18.8255 16.0689 18.7769 16.0676C18.552 16.0638 18.3259 16.0612 18.0985 16.0612C17.871 16.0612 17.6449 16.0638 17.42 16.0676C17.3715 16.0676 17.328 16.0344 17.3178 15.9871L13.4796 -1.73689C12.7974 -4.87999 9.37572 -6.57803 6.4626 -5.21858C3.79863 -3.97667 2.77137 -0.718578 4.23943 1.82657L12.5853 16.2989C12.621 16.3615 12.5827 16.442 12.5112 16.4522C4.11039 17.6558 -2.03271 21.5029 -2.03271 26.0642C-2.03271 31.5889 6.98006 36.0672 18.0972 36.0672C29.2143 36.0672 38.2271 31.5889 38.2271 26.0642C38.2271 21.5029 32.084 17.6558 23.6845 16.4522Z" fill="white"/>
<path id="Vector_4" d="M18.097 36.2387C12.6937 36.2387 7.61234 35.1923 3.78695 33.2911C1.9177 32.3622 0.448369 31.2775 -0.581444 30.0688C-1.65853 28.8039 -2.2041 27.4559 -2.2041 26.0645C-2.2041 24.9133 -1.82719 23.7851 -1.0823 22.7106C-0.369349 21.6821 0.665575 20.7212 1.99564 19.8563C4.60467 18.1582 8.29206 16.8959 12.3858 16.2979L4.08977 1.91247C3.3666 0.657785 3.2005 -0.854991 3.63747 -2.23617C4.07316 -3.61734 5.07614 -4.76087 6.3896 -5.37288C7.82571 -6.04238 9.4637 -6.02322 10.8832 -5.31794C12.3027 -4.61393 13.3095 -3.32092 13.6443 -1.77237L17.4709 15.8967C17.6984 15.8929 17.9041 15.8916 18.0957 15.8916C18.2874 15.8916 18.4931 15.8929 18.7205 15.8967L22.5472 -1.77237C22.8832 -3.32092 23.8887 -4.61393 25.3082 -5.31794C26.7278 -6.02194 28.3657 -6.04238 29.8019 -5.37288C31.1153 -4.76087 32.1183 -3.61734 32.554 -2.23617C32.9897 -0.854991 32.8249 0.657785 32.1017 1.91247L23.807 16.2979C27.9007 16.8959 31.5881 18.1582 34.1971 19.8563C35.5272 20.7212 36.5621 21.6821 37.275 22.7106C38.0186 23.7851 38.3968 24.9133 38.3968 26.0645C38.3968 27.4572 37.8513 28.8039 36.7742 30.0688C35.7456 31.2775 34.275 32.3622 32.4058 33.2911C28.5804 35.1923 23.4991 36.2387 18.0957 36.2387H18.097ZM8.58082 -5.51981C7.88448 -5.51981 7.18687 -5.36777 6.53397 -5.06368C5.3074 -4.49128 4.37086 -3.42313 3.96327 -2.13395C3.55569 -0.843492 3.71029 0.568347 4.38619 1.74126L12.732 16.2136C12.778 16.2928 12.7806 16.3886 12.741 16.4704C12.7013 16.5522 12.6234 16.6084 12.534 16.6212C8.44794 17.2063 4.77205 18.4572 2.18218 20.1425C0.890447 20.9832 -0.113812 21.912 -0.801206 22.9048C-1.50521 23.9206 -1.86168 24.9836 -1.86168 26.0645C-1.86168 27.3729 -1.34294 28.6454 -0.320797 29.8477C0.678351 31.0206 2.11063 32.0773 3.939 32.9844C7.71839 34.8626 12.7461 35.8963 18.097 35.8963C23.4479 35.8963 28.4756 34.8626 32.255 32.9844C34.0834 32.076 35.5157 31.0206 36.5148 29.8477C37.537 28.6467 38.0557 27.3741 38.0557 26.0645C38.0557 24.9836 37.6992 23.9206 36.9952 22.9048C36.3078 21.912 35.3048 20.9832 34.0118 20.1425C31.422 18.4572 27.7461 17.2063 23.66 16.6212C23.5693 16.6084 23.4927 16.5522 23.4531 16.4704C23.4134 16.3886 23.4173 16.2928 23.462 16.2136L31.8078 1.74126C32.4837 0.569625 32.6383 -0.843492 32.2307 -2.13395C31.8232 -3.42441 30.8866 -4.49256 29.66 -5.06368C28.3185 -5.68974 26.7891 -5.67058 25.4628 -5.01257C24.1366 -4.35457 23.1962 -3.14715 22.8832 -1.70082L19.045 16.0232C19.0182 16.1484 18.9058 16.2391 18.778 16.2391C18.7767 16.2391 18.7755 16.2391 18.7729 16.2391C18.525 16.2353 18.304 16.2327 18.097 16.2327C17.89 16.2327 17.6703 16.2353 17.4211 16.2391C17.4198 16.2391 17.4186 16.2391 17.416 16.2391C17.2882 16.2391 17.1758 16.1497 17.149 16.0232L13.3108 -1.70082C12.9978 -3.14715 12.0574 -4.35457 10.7312 -5.01257C10.0502 -5.34988 9.31549 -5.51981 8.57954 -5.51981H8.58082Z" fill="black"/>
</g>
<g id="Group_4">
<g id="Group_5">
<g id="Group_6">
<path id="Vector_5" d="M12.1074 29.5562C14.2088 29.5562 15.9124 28.0632 15.9124 26.2215C15.9124 24.3797 14.2088 22.8867 12.1074 22.8867C10.006 22.8867 8.30249 24.3797 8.30249 26.2215C8.30249 28.0632 10.006 29.5562 12.1074 29.5562Z" fill="white"/>
<path id="Vector_6" d="M12.1073 29.7268C9.91475 29.7268 8.1311 28.1539 8.1311 26.2208C8.1311 24.2877 9.91475 22.7148 12.1073 22.7148C14.2998 22.7148 16.0834 24.2877 16.0834 26.2208C16.0834 28.1539 14.2998 29.7268 12.1073 29.7268ZM12.1073 23.0585C10.1038 23.0585 8.47352 24.478 8.47352 26.2221C8.47352 27.9661 10.1038 29.3856 12.1073 29.3856C14.1107 29.3856 15.741 27.9661 15.741 26.2221C15.741 24.478 14.1107 23.0585 12.1073 23.0585Z" fill="black"/>
</g>
<g id="Group_7">
<path id="Vector_7" d="M14.264 23.4727C12.4765 23.5097 11.043 24.7248 11.043 26.2197C11.043 27.7146 12.4778 28.9309 14.264 28.9667C15.2593 28.3649 15.9122 27.3594 15.9122 26.2197C15.9122 25.08 15.2593 24.0744 14.264 23.4727Z" fill="black"/>
<path id="Vector_8" d="M14.2692 28.9855H14.2641C13.394 28.9676 12.5801 28.6725 11.9719 28.1537C11.3612 27.6337 11.0251 26.9463 11.0251 26.2193C11.0251 25.4923 11.3612 24.8049 11.9719 24.2849C12.5814 23.7662 13.3952 23.471 14.2641 23.4531H14.2692L14.2743 23.4557C15.3118 24.083 15.9314 25.1154 15.9314 26.2193C15.9314 27.3232 15.3118 28.3556 14.2743 28.9829L14.2692 28.9855ZM14.259 23.4915C13.4004 23.5106 12.5967 23.8019 11.9962 24.313C11.3944 24.8254 11.0622 25.5025 11.0622 26.2193C11.0622 26.9361 11.3944 27.6133 11.9962 28.1256C12.5967 28.6367 13.4004 28.9293 14.259 28.9472C15.2824 28.3275 15.8931 27.3079 15.8931 26.2193C15.8931 25.1307 15.2824 24.1111 14.259 23.4915Z" fill="black"/>
</g>
</g>
<g id="Group_8">
<g id="Group_9">
<path id="Vector_9" d="M24.0857 29.5562C26.1871 29.5562 27.8906 28.0632 27.8906 26.2215C27.8906 24.3797 26.1871 22.8867 24.0857 22.8867C21.9843 22.8867 20.2808 24.3797 20.2808 26.2215C20.2808 28.0632 21.9843 29.5562 24.0857 29.5562Z" fill="white"/>
<path id="Vector_10" d="M24.0855 29.7268C21.893 29.7268 20.1094 28.1539 20.1094 26.2208C20.1094 24.2877 21.893 22.7148 24.0855 22.7148C26.278 22.7148 28.0617 24.2877 28.0617 26.2208C28.0617 28.1539 26.278 29.7268 24.0855 29.7268ZM24.0855 23.0585C22.0821 23.0585 20.4518 24.478 20.4518 26.2221C20.4518 27.9661 22.0821 29.3856 24.0855 29.3856C26.0889 29.3856 27.7193 27.9661 27.7193 26.2221C27.7193 24.478 26.0889 23.0585 24.0855 23.0585Z" fill="black"/>
</g>
<g id="Group_10">
<path id="Vector_11" d="M26.2435 23.4727C24.456 23.5097 23.0225 24.7248 23.0225 26.2197C23.0225 27.7146 24.4573 28.9309 26.2435 28.9667C27.2388 28.3649 27.8917 27.3594 27.8917 26.2197C27.8917 25.08 27.2388 24.0744 26.2435 23.4727Z" fill="black"/>
<path id="Vector_12" d="M26.2487 28.9855H26.2436C25.3735 28.9676 24.5596 28.6725 23.9514 28.1537C23.3407 27.6337 23.0046 26.9463 23.0046 26.2193C23.0046 25.4923 23.3407 24.8049 23.9514 24.2849C24.5609 23.7662 25.3747 23.471 26.2436 23.4531H26.2487L26.2538 23.4557C27.2913 24.083 27.9109 25.1154 27.9109 26.2193C27.9109 27.3232 27.2913 28.3556 26.2538 28.9829L26.2487 28.9855ZM26.2385 23.4915C25.3799 23.5106 24.5762 23.8019 23.9757 24.313C23.3739 24.8254 23.0417 25.5025 23.0417 26.2193C23.0417 26.9361 23.3739 27.6133 23.9757 28.1256C24.5762 28.6367 25.3799 28.9293 26.2385 28.9472C27.2619 28.3275 27.8726 27.3079 27.8726 26.2193C27.8726 25.1307 27.2619 24.1111 26.2385 23.4915Z" fill="black"/>
</g>
</g>
</g>
</g>
</g>
</g>
</g>
<path id="Vector_13" d="M18 36C15.5698 36 13.2125 35.5234 10.9932 34.5856C8.84923 33.6784 6.92504 32.3816 5.27172 30.7283C3.6184 29.075 2.32027 27.1495 1.4144 25.0068C0.475298 22.7875 0 20.4302 0 18C0 15.5698 0.476576 13.2125 1.4144 10.9932C2.32155 8.84923 3.6184 6.92504 5.27172 5.27172C6.92504 3.6184 8.85051 2.32027 10.9932 1.4144C13.2125 0.475298 15.5698 0 18 0C20.4302 0 22.7875 0.476576 25.0068 1.4144C27.1508 2.32155 29.075 3.6184 30.7283 5.27172C32.3816 6.92504 33.6797 8.85051 34.5856 10.9932C35.5247 13.2125 36 15.5698 36 18C36 20.4302 35.5234 22.7875 34.5856 25.0068C33.6784 27.1508 32.3816 29.075 30.7283 30.7283C29.075 32.3816 27.1495 33.6797 25.0068 34.5856C22.7875 35.5247 20.4302 36 18 36ZM18 0.339864C15.6158 0.339864 13.3032 0.806218 11.1261 1.72743C9.023 2.61669 7.13458 3.89054 5.5132 5.51192C3.89182 7.1333 2.61797 9.02172 1.72871 11.1248C0.807496 13.302 0.341141 15.6146 0.341141 17.9987C0.341141 20.3829 0.807496 22.6955 1.72871 24.8727C2.61797 26.9757 3.89182 28.8641 5.5132 30.4855C7.13458 32.1069 9.023 33.3807 11.1261 34.27C13.3032 35.1912 15.6158 35.6576 18 35.6576C20.3842 35.6576 22.6968 35.1912 24.8739 34.27C26.977 33.3807 28.8654 32.1069 30.4868 30.4855C32.1082 28.8641 33.382 26.9757 34.2713 24.8727C35.1925 22.6955 35.6589 20.3829 35.6589 17.9987C35.6589 15.6146 35.1925 13.302 34.2713 11.1248C33.382 9.02172 32.1082 7.1333 30.4868 5.51192C28.8654 3.89054 26.977 2.61669 24.8739 1.72743C22.6968 0.806218 20.3842 0.339864 18 0.339864Z" fill="black"/>
</g>
</g>
</g>
<defs>
<clipPath id="clip0_553_739">
<rect width="36" height="36" fill="white"/>
</clipPath>
</defs>
</svg>
