<svg width="198" height="33" viewBox="0 0 198 33" fill="none" xmlns="http://www.w3.org/2000/svg">
<g id="Group 17">
<g id="Group">
<path id="Vector" d="M47.5706 3.04297H51.9178C52.3461 3.04297 52.7224 3.30899 52.8716 3.70479L59.691 22.0671L66.5103 3.70479C66.6595 3.30251 67.0424 3.04297 67.4641 3.04297H71.6556C72.3759 3.04297 72.869 3.76967 72.603 4.44447L62.494 29.6196C62.3382 30.0089 61.9619 30.262 61.5467 30.262H57.6731C57.2578 30.262 56.8815 30.0089 56.7257 29.6196L46.6233 4.44447C46.3572 3.77616 46.8503 3.04297 47.5706 3.04297Z" fill="white"/>
<path id="Vector_2" d="M75.8405 16.6285V16.5507C75.8405 8.86835 81.9007 2.58105 90.2383 2.58105C98.5759 2.58105 104.558 8.79698 104.558 16.4793V16.5571C104.558 24.2395 98.4981 30.5332 90.1604 30.5332C81.8228 30.5332 75.8405 24.3173 75.8405 16.635V16.6285ZM98.3424 16.6285V16.5507C98.3424 11.9179 94.9424 8.0573 90.1604 8.0573C85.3785 8.0573 82.0564 11.8401 82.0564 16.4728V16.5507C82.0564 21.1834 85.4563 25.044 90.2383 25.044C95.0203 25.044 98.3424 21.2613 98.3424 16.6285Z" fill="white"/>
<path id="Vector_3" d="M131.31 4.63264L123.369 16.2405L131.7 28.4647C132.16 29.1395 131.674 30.0608 130.856 30.0608H126.386C126.042 30.0608 125.724 29.8856 125.536 29.6001L119.781 20.7953L113.986 29.6001C113.798 29.8856 113.48 30.0608 113.136 30.0608H108.867C108.049 30.0608 107.563 29.1395 108.023 28.4647L116.348 16.3183L108.4 4.63264C107.939 3.95784 108.426 3.04297 109.243 3.04297H113.707C114.051 3.04297 114.376 3.21816 114.564 3.51014L119.897 11.8024L125.348 3.50365C125.536 3.21816 125.854 3.04297 126.198 3.04297H130.473C131.291 3.04297 131.778 3.96433 131.317 4.63912L131.31 4.63264Z" fill="white"/>
<path id="Vector_4" d="M146.429 18.479V4.06165C146.429 3.49716 146.883 3.04297 147.447 3.04297H151.353C151.918 3.04297 152.372 3.49716 152.372 4.06165V18.3297C152.372 22.7289 154.572 25.0063 158.199 25.0063C161.826 25.0063 164.025 22.8068 164.025 18.5244V4.06165C164.025 3.49716 164.479 3.04297 165.044 3.04297H168.95C169.514 3.04297 169.969 3.49716 169.969 4.06165V18.2908C169.969 26.4727 165.375 30.4891 158.121 30.4891C150.867 30.4891 146.429 26.4338 146.429 18.4855V18.479Z" fill="white"/>
<path id="Vector_5" d="M176.029 4.06165C176.029 3.49716 176.483 3.04297 177.047 3.04297H187.065C193.508 3.04297 197.408 6.86466 197.408 12.3863V12.4642C197.408 18.719 192.542 21.9568 186.481 21.9568H181.966V29.0421C181.966 29.6066 181.511 30.0608 180.947 30.0608H177.041C176.476 30.0608 176.022 29.6066 176.022 29.0421V4.06165H176.029ZM186.683 16.6687C189.654 16.6687 191.393 14.8909 191.393 12.5745V12.4966C191.393 9.83636 189.544 8.40242 186.566 8.40242H181.972V16.6622H186.683V16.6687Z" fill="white"/>
</g>
<path id="Vector_6" d="M30.8694 7.28027L19.8455 25.0845C19.6768 25.3506 19.3849 25.5128 19.0734 25.5128H15.6281C15.3166 25.5128 15.0246 25.3506 14.8559 25.0845L9.55488 16.5847L7.1866 12.789C6.99843 12.484 7.21255 12.0947 7.56942 12.0947H11.5987C11.9102 12.0947 12.2022 12.2569 12.3709 12.5229L14.9078 16.5847L17.3475 20.4907V20.4778L24.4718 8.98024L27.6641 3.82194C24.8481 1.53801 21.26 0.168945 17.354 0.168945C8.28963 0.168945 0.938232 7.52034 0.938232 16.5847V33.0004H17.354C26.4183 33.0004 33.7697 25.649 33.7697 16.5847C33.7697 13.1264 32.6926 9.92107 30.8694 7.27378V7.28027Z" fill="white"/>
</g>
</svg>
