<svg width="321" height="54" viewBox="0 0 321 54" fill="none" xmlns="http://www.w3.org/2000/svg">
<path d="M76.1255 4.68175H83.2061C83.9036 4.68175 84.5165 5.11503 84.7596 5.75968L95.8666 35.6672L106.974 5.75968C107.217 5.10447 107.84 4.68175 108.527 4.68175H115.354C116.527 4.68175 117.33 5.86537 116.897 6.96444L100.432 47.9684C100.178 48.6025 99.5654 49.0146 98.8891 49.0146H92.58C91.9036 49.0146 91.2907 48.6025 91.037 47.9684L74.5826 6.96444C74.1493 5.87593 74.9525 4.68175 76.1255 4.68175Z" fill="white"/>
<path d="M122.17 26.8097V26.6829C122.17 14.1703 132.041 3.9299 145.621 3.9299C159.2 3.9299 168.944 14.0541 168.944 26.5666V26.6934C168.944 39.206 159.074 49.457 145.494 49.457C131.914 49.457 122.17 39.3328 122.17 26.8203V26.8097ZM158.82 26.8097V26.6829C158.82 19.1373 153.282 12.8493 145.494 12.8493C137.705 12.8493 132.294 19.0105 132.294 26.5561V26.6829C132.294 34.2284 137.832 40.5164 145.621 40.5164C153.409 40.5164 158.82 34.3553 158.82 26.8097Z" fill="white"/>
<path d="M212.517 7.27091L199.581 26.1771L213.151 46.0873C213.901 47.1864 213.109 48.687 211.777 48.687H204.496C203.935 48.687 203.418 48.4017 203.111 47.9367L193.737 33.5959L184.3 47.9367C183.994 48.4017 183.476 48.687 182.916 48.687H175.962C174.63 48.687 173.838 47.1864 174.588 46.0873L188.147 26.3039L175.201 7.27091C174.451 6.17184 175.243 4.68175 176.575 4.68175H183.846C184.406 4.68175 184.934 4.96708 185.241 5.44264L193.928 18.9486L202.805 5.43208C203.111 4.96708 203.629 4.68175 204.189 4.68175H211.153C212.485 4.68175 213.278 6.18241 212.527 7.28148L212.517 7.27091Z" fill="white"/>
<path d="M237.14 29.8231V6.34093C237.14 5.42151 237.88 4.68175 238.799 4.68175H245.161C246.081 4.68175 246.821 5.42151 246.821 6.34093V29.58C246.821 36.7452 250.403 40.4545 256.311 40.4545C262.218 40.4545 265.801 36.872 265.801 29.8971V6.34093C265.801 5.42151 266.54 4.68175 267.46 4.68175H273.822C274.741 4.68175 275.481 5.42151 275.481 6.34093V29.5166C275.481 42.8429 267.999 49.3845 256.184 49.3845C244.369 49.3845 237.14 42.7795 237.14 29.8337V29.8231Z" fill="white"/>
<path d="M285.351 6.34093C285.351 5.42151 286.091 4.68175 287.01 4.68175H303.327C313.822 4.68175 320.173 10.9063 320.173 19.8997V20.0265C320.173 30.2141 312.247 35.4876 302.376 35.4876H295.021V47.0279C295.021 47.9473 294.281 48.687 293.362 48.687H287C286.08 48.687 285.341 47.9473 285.341 47.0279V6.34093H285.351ZM302.704 26.8746C307.544 26.8746 310.376 23.979 310.376 20.2062V20.0794C310.376 15.7465 307.364 13.4109 302.514 13.4109H295.032V26.8641H302.704V26.8746Z" fill="white"/>
<path d="M48.9234 11.5826L30.9683 40.5813C30.6936 41.0145 30.218 41.2787 29.7108 41.2787H24.0991C23.5919 41.2787 23.1163 41.0145 22.8415 40.5813L14.2074 26.7371L10.3501 20.5548C10.0436 20.0581 10.3924 19.424 10.9736 19.424H17.5364C18.0436 19.424 18.5192 19.6882 18.794 20.1215L22.9261 26.7371L26.8997 33.0991V33.0779L38.5034 14.3514L43.7028 5.9498C39.1163 2.22986 33.2722 0 26.9102 0C12.1467 0 0.173096 11.9736 0.173096 26.7371V53.4743H26.9102C41.6738 53.4743 53.6473 41.5007 53.6473 26.7371C53.6473 21.1044 51.8931 15.8838 48.9234 11.572V11.5826Z" fill="white"/>
</svg>
