<svg width="180" height="31" viewBox="0 0 180 31" fill="none" xmlns="http://www.w3.org/2000/svg">
<g id="Group 17">
<g id="Group 14">
<g id="Group">
<path id="Vector" d="M42.7233 2.63379H46.7061C47.0985 2.63379 47.4433 2.87751 47.58 3.24013L53.8277 20.0631L60.0753 3.24013C60.2121 2.87157 60.5628 2.63379 60.9492 2.63379H64.7894C65.4492 2.63379 65.901 3.29958 65.6573 3.91781L56.3957 26.9825C56.253 27.3392 55.9082 27.571 55.5278 27.571H51.9789C51.5985 27.571 51.2537 27.3392 51.111 26.9825L41.8554 3.91781C41.6117 3.30552 42.0635 2.63379 42.7233 2.63379Z" fill="white"/>
<path id="Vector_2" d="M68.6233 15.0808V15.0095C68.6233 7.97118 74.1755 2.21094 81.8142 2.21094C89.4529 2.21094 94.9337 7.90579 94.9337 14.9441V15.0154C94.9337 22.0537 89.3815 27.8199 81.7428 27.8199C74.1041 27.8199 68.6233 22.1251 68.6233 15.0868V15.0808ZM89.2389 15.0808V15.0095C89.2389 10.7651 86.1239 7.22811 81.7428 7.22811C77.3617 7.22811 74.3181 10.6938 74.3181 14.9381V15.0095C74.3181 19.2539 77.4331 22.7909 81.8142 22.7909C86.1953 22.7909 89.2389 19.3252 89.2389 15.0808Z" fill="white"/>
<path id="Vector_3" d="M119.443 4.0902L112.167 14.7249L119.8 25.9244C120.222 26.5426 119.776 27.3868 119.027 27.3868H114.931C114.616 27.3868 114.325 27.2263 114.153 26.9647L108.88 18.898L103.571 26.9647C103.399 27.2263 103.108 27.3868 102.793 27.3868H98.8812C98.1322 27.3868 97.6863 26.5426 98.1084 25.9244L105.735 14.7963L98.4532 4.0902C98.0311 3.47197 98.477 2.63379 99.226 2.63379H103.316C103.631 2.63379 103.928 2.79429 104.1 3.06179L108.987 10.6589L113.98 3.05585C114.153 2.79429 114.444 2.63379 114.759 2.63379H118.676C119.425 2.63379 119.871 3.47791 119.449 4.09614L119.443 4.0902Z" fill="white"/>
<path id="Vector_4" d="M133.294 16.7758V3.56708C133.294 3.04991 133.71 2.63379 134.227 2.63379H137.806C138.323 2.63379 138.739 3.04991 138.739 3.56708V16.6391C138.739 20.6695 140.754 22.756 144.077 22.756C147.4 22.756 149.415 20.7408 149.415 16.8174V3.56708C149.415 3.04991 149.832 2.63379 150.349 2.63379H153.927C154.445 2.63379 154.861 3.04991 154.861 3.56708V16.6034C154.861 24.0994 150.652 27.7791 144.006 27.7791C137.36 27.7791 133.294 24.0638 133.294 16.7817V16.7758Z" fill="white"/>
<path id="Vector_5" d="M160.413 3.56708C160.413 3.04991 160.829 2.63379 161.346 2.63379H170.525C176.427 2.63379 180 6.13511 180 11.1939V11.2652C180 16.9957 175.542 19.9621 169.99 19.9621H165.852V26.4535C165.852 26.9706 165.436 27.3868 164.919 27.3868H161.34C160.823 27.3868 160.407 26.9706 160.407 26.4535V3.56708H160.413ZM170.174 15.1173C172.896 15.1173 174.49 13.4885 174.49 11.3663V11.295C174.49 8.8577 172.795 7.54396 170.067 7.54396H165.858V15.1113H170.174V15.1173Z" fill="white"/>
</g>
<path id="Vector_6" d="M27.4221 6.51519L17.3223 22.827C17.1678 23.0707 16.9003 23.2193 16.6149 23.2193H13.4584C13.1731 23.2193 12.9055 23.0707 12.751 22.827L7.89432 15.0396L5.72457 11.5621C5.55218 11.2827 5.74835 10.926 6.0753 10.926H9.76684C10.0522 10.926 10.3197 11.0746 10.4742 11.3184L12.7985 15.0396L15.0337 18.6182V18.6063L21.5608 8.07265L24.4855 3.34676C21.9055 1.25429 18.6182 0 15.0396 0C6.73514 0 0 6.73514 0 15.0396V30.0793H15.0396C23.3441 30.0793 30.0793 23.3441 30.0793 15.0396C30.0793 11.8712 29.0925 8.93461 27.4221 6.50925V6.51519Z" fill="white"/>
</g>
</g>
</svg>
