<svg width="198" height="33" viewBox="0 0 198 33" fill="none" xmlns="http://www.w3.org/2000/svg">
<g id="Group 28">
<g id="Group 17">
<g id="Group">
<path id="Vector" d="M47.4594 2.87305H51.8066C52.2348 2.87305 52.6112 3.13907 52.7604 3.53487L59.5798 21.8971L66.3991 3.53487C66.5483 3.13258 66.9312 2.87305 67.3529 2.87305H71.5444C72.2647 2.87305 72.7578 3.59975 72.4917 4.27455L62.3828 29.4497C62.227 29.839 61.8507 30.092 61.4355 30.092H57.5619C57.1466 30.092 56.7703 29.839 56.6145 29.4497L46.512 4.27455C46.246 3.60624 46.7391 2.87305 47.4594 2.87305Z" fill="white"/>
<path id="Vector_2" d="M75.7295 16.4596V16.3817C75.7295 8.69941 81.7897 2.41211 90.1273 2.41211C98.465 2.41211 104.447 8.62803 104.447 16.3103V16.3882C104.447 24.0705 98.3871 30.3643 90.0495 30.3643C81.7118 30.3643 75.7295 24.1484 75.7295 16.4661V16.4596ZM98.2314 16.4596V16.3817C98.2314 11.749 94.8314 7.88835 90.0495 7.88835C85.2675 7.88835 81.9454 11.6711 81.9454 16.3039V16.3817C81.9454 21.0145 85.3454 24.8751 90.1273 24.8751C94.9093 24.8751 98.2314 21.0923 98.2314 16.4596Z" fill="white"/>
<path id="Vector_3" d="M131.199 4.46271L123.257 16.0705L131.588 28.2947C132.049 28.9695 131.562 29.8909 130.745 29.8909H126.274C125.93 29.8909 125.612 29.7157 125.424 29.4302L119.669 20.6254L113.875 29.4302C113.687 29.7157 113.369 29.8909 113.025 29.8909H108.756C107.938 29.8909 107.451 28.9695 107.912 28.2947L116.237 16.1484L108.288 4.46271C107.828 3.78792 108.314 2.87305 109.132 2.87305H113.596C113.94 2.87305 114.264 3.04823 114.452 3.34021L119.786 11.6324L125.236 3.33373C125.424 3.04823 125.742 2.87305 126.086 2.87305H130.362C131.18 2.87305 131.666 3.79441 131.206 4.4692L131.199 4.46271Z" fill="white"/>
<path id="Vector_4" d="M146.317 18.309V3.89173C146.317 3.32724 146.772 2.87305 147.336 2.87305H151.242C151.807 2.87305 152.261 3.32724 152.261 3.89173V18.1598C152.261 22.559 154.46 24.8364 158.087 24.8364C161.714 24.8364 163.914 22.6368 163.914 18.3545V3.89173C163.914 3.32724 164.368 2.87305 164.933 2.87305H168.839C169.403 2.87305 169.857 3.32724 169.857 3.89173V18.1209C169.857 26.3028 165.264 30.3191 158.01 30.3191C150.755 30.3191 146.317 26.2639 146.317 18.3155V18.309Z" fill="white"/>
<path id="Vector_5" d="M175.917 3.89173C175.917 3.32724 176.371 2.87305 176.936 2.87305H186.954C193.397 2.87305 197.297 6.69474 197.297 12.2164V12.2943C197.297 18.5491 192.43 21.7868 186.37 21.7868H181.854V28.8722C181.854 29.4367 181.4 29.8909 180.835 29.8909H176.929C176.365 29.8909 175.911 29.4367 175.911 28.8722V3.89173H175.917ZM186.571 16.4988C189.543 16.4988 191.282 14.7209 191.282 12.4046V12.3267C191.282 9.66644 189.433 8.2325 186.454 8.2325H181.861V16.4923H186.571V16.4988Z" fill="white"/>
</g>
<path id="Vector_6" d="M30.7583 7.11133L19.7345 24.9156C19.5658 25.1816 19.2738 25.3438 18.9623 25.3438H15.517C15.2055 25.3438 14.9135 25.1816 14.7448 24.9156L9.44379 16.4157L7.07551 12.62C6.88735 12.3151 7.10147 11.9257 7.45833 11.9257H11.4877C11.7991 11.9257 12.0911 12.088 12.2598 12.354L14.7968 16.4157L17.2364 20.3218V20.3088L24.3607 8.8113L27.553 3.65299C24.737 1.36906 21.1489 0 17.2429 0C8.17855 0 0.827148 7.3514 0.827148 16.4157V32.8315H17.2429C26.3072 32.8315 33.6586 25.4801 33.6586 16.4157C33.6586 12.9574 32.5816 9.75212 30.7583 7.10484V7.11133Z" fill="white"/>
</g>
</g>
</svg>
