<svg width="194" height="196" viewBox="0 0 194 196" fill="none" xmlns="http://www.w3.org/2000/svg">
<g id="Group 53">
<g id="Group">
<path id="Vector" d="M139.299 56.4872C140.111 56.6469 140.368 57.0081 140.299 57.8484C139.986 61.3696 140.875 64.4463 142.716 66.2243C143.188 66.6757 143.306 66.9188 143.23 67.273C143.112 67.8633 142.528 68.3425 142.049 68.2453C140.945 68.0231 139.479 65.3561 139.042 63.9185C138.827 63.2101 138.674 62.3281 138.535 61.5363C138.049 62.4322 136.944 63.7935 136.076 64.5852C134.778 65.7659 133.27 66.5576 132.583 66.4257C132.02 66.3146 131.666 65.7312 131.784 65.1269C131.861 64.7311 132.027 64.5644 132.493 64.4046C133.618 64.0157 134.271 63.6129 135.125 62.7864C136.007 61.9461 137.201 60.5223 138.042 58.5499C138.16 58.2929 138.16 58.2651 138.174 58.2096C138.188 58.1262 138.16 58.0915 138.021 58.0637L136.035 57.6679C135.583 57.5776 135.403 57.2095 135.514 56.6469C135.625 56.0844 135.937 55.8135 136.389 55.9038L139.292 56.4872H139.299Z" fill="black"/>
<path id="Vector_2" d="M151.654 61.2796C151.745 61.0088 151.863 60.6476 151.974 60.3073C152.133 59.7656 152.328 59.1336 153.314 59.4183C153.96 59.6059 154.155 59.9253 153.981 60.5226C153.918 60.724 153.773 61.1894 153.55 61.8283L156.634 62.7242C157.634 63.0159 157.988 63.4952 157.766 64.2522C157.051 66.7038 156.009 69.3013 155.738 69.9125C155.044 71.4543 154.543 71.6904 152.932 71.2182C151.432 70.7806 150.863 70.5862 151.14 69.6416C151.307 69.0652 151.654 68.829 152.106 68.961C152.432 69.0582 152.884 69.2805 153.279 69.3916C153.738 69.5235 153.856 69.4263 154.182 68.704C154.648 67.6553 155.37 65.6134 155.648 64.648C155.703 64.4536 155.606 64.3077 155.384 64.2452L152.925 63.5299C152.592 64.4883 151.89 65.7454 151.231 66.5649C149.668 68.5859 146.897 69.5999 145.945 69.3221C145.431 69.1693 145.126 68.5512 145.293 67.9748C145.411 67.565 145.737 67.4817 146.862 67.1414C149.557 66.3496 150.522 64.0924 151.022 62.9743L148.154 62.1408C147.696 62.0089 147.55 61.6269 147.716 61.0644C147.876 60.5157 148.223 60.2726 148.668 60.4046L151.647 61.2727L151.654 61.2796Z" fill="black"/>
<path id="Vector_3" d="M164.718 65.2054C164.399 66.0179 162.753 69.4836 162.468 70.1989C162.1 71.1296 161.676 72.1852 163.1 72.7478C164.621 73.352 165.927 72.9145 167.323 71.331C167.746 70.8379 168.024 70.7476 168.475 70.9282C169.101 71.1782 169.413 71.7199 169.212 72.2269C169.024 72.7061 168.114 73.609 167.288 74.1229C165.76 75.0883 164.149 75.2203 162.364 74.5049C160.947 73.9424 160.162 73.0812 160.037 71.9283C159.968 71.2963 160.107 70.6781 160.544 69.5739C160.6 69.435 162.183 65.9068 162.468 65.2054C162.544 65.004 162.864 64.108 162.933 63.9275C163.149 63.3788 163.586 63.2329 164.26 63.4969C164.989 63.7886 165.107 64.24 164.725 65.1984L164.718 65.2054Z" fill="black"/>
<path id="Vector_4" d="M173.476 70.9052C173.219 70.8288 173.011 70.7524 172.872 70.6829C172.413 70.4468 172.281 69.8426 172.559 69.3008C172.774 68.8772 173.129 68.6549 173.476 68.7174C174.288 68.8563 180.991 71.5441 181.991 72.0581C182.699 72.4261 182.838 72.8151 182.491 73.4957C182.31 73.843 182.095 74.0235 181.838 74.0305C181.734 74.0444 181.706 74.0305 181.261 73.8638C180.449 73.5304 179.9 73.4193 179.31 73.4471C178.928 73.4749 176.469 73.6624 175.497 75.5515C174.809 76.8849 175.275 77.9823 176.955 79.0032C177.469 79.3227 177.49 79.3366 177.58 79.4824C177.754 79.7255 177.754 80.0519 177.58 80.3853C177.268 80.9965 176.733 81.1284 176.053 80.7812C173.997 79.7255 172.281 77.5586 173.643 74.9125C174.413 73.4124 175.969 72.3567 177.546 72.2525C176.039 71.7316 174.657 71.2594 173.469 70.9121L173.476 70.9052Z" fill="black"/>
<path id="Vector_5" d="M184.241 78.0042C183.873 77.7472 183.838 77.2471 184.178 76.7679C184.651 76.1012 185.019 76.2887 185.866 76.7193C186.165 76.886 186.408 76.9971 186.686 77.1152C188.054 75.3511 188.255 75.0872 189.054 75.6498C189.568 76.0109 189.686 76.3998 189.415 76.7888C189.408 76.8027 188.582 77.775 188.457 77.9347C188.651 78.1361 188.693 78.4695 188.554 78.6639C188.505 78.7334 188.373 78.8098 188.207 78.8931C187.665 79.1362 187.568 79.1918 187.401 79.2751C187.387 79.296 187.338 79.3654 187.269 79.4418C189.797 78.9626 191.019 79.0737 192.124 79.8516C194.054 81.2128 193.297 83.1783 191.978 85.0465C191.506 85.7133 190.867 86.4078 190.637 86.6578C190.86 87.2273 190.853 87.6996 190.61 88.0468C190.269 88.5261 189.714 88.6858 189.346 88.4288C189.193 88.3177 189.061 88.1371 189.012 87.8593C188.179 88.1441 187.095 87.9427 186.227 87.3315C184.942 86.4217 184.609 85.1785 185.352 84.1228C186.13 83.0186 187.422 82.8866 188.686 83.7825C189.082 84.0673 189.332 84.3173 189.707 84.8243C190.026 84.4354 190.255 84.1367 190.367 83.977C191.346 82.588 191.512 81.7545 190.797 81.2475C190.422 80.9836 189.887 80.8656 189.2 80.8864C187.498 80.9559 185.901 81.4212 185.776 81.4698C185.373 81.9976 184.984 82.5185 184.609 83.0533C184.428 83.3103 183.63 84.5257 183.512 84.6993C183.13 85.241 182.727 85.3105 182.164 84.9146C181.581 84.5048 181.532 84.0742 181.984 83.4353C182.109 83.2616 182.817 82.2963 183.13 81.9004C183.06 81.9282 183.032 81.956 182.671 82.1157C181.748 82.5324 181.671 82.5602 181.324 82.3102C180.852 81.9768 180.734 81.3239 181.039 80.8933C181.248 80.5947 181.553 80.428 182.289 80.1849C183.13 79.921 184.449 79.4279 185.116 79.1501C185.262 78.9626 185.401 78.7681 185.54 78.5945C184.873 78.3514 184.553 78.2333 184.234 78.0111L184.241 78.0042ZM187.686 84.984C187.276 84.6923 186.908 84.6923 186.713 84.9701C186.498 85.2757 186.658 85.6786 187.095 85.9911C187.588 86.3383 188.054 86.3314 188.491 86.0258C188.269 85.5188 188.054 85.241 187.686 84.984Z" fill="black"/>
</g>
<g id="Group_2">
<g id="Group_3">
<path id="Vector_6" d="M108.435 76.8368C108.115 76.8368 107.803 76.8368 107.483 76.8368C98.6697 42.9375 81.1957 17.9071 71.285 5.71146C67.2916 0.794298 60.3325 -0.518335 54.825 2.60698C47.8451 6.56572 46.1019 15.8583 51.1788 22.0742C60.7006 33.7351 75.6049 53.3483 89.5924 77.3924C68.507 52.1467 33.3506 46.8337 14.2514 45.91C6.99377 45.5627 0.923706 51.3619 0.923706 58.6196C0.923706 65.787 6.83403 71.5307 14.0014 71.3431C29.5308 70.9403 55.4223 72.0654 72.1532 82.372C53.0609 88.7546 40.3791 100.027 40.3791 112.868C40.3791 132.773 70.8475 148.907 108.435 148.907C146.022 148.907 176.49 132.773 176.49 112.868C176.49 92.9634 146.022 76.8298 108.435 76.8298V76.8368Z" fill="white"/>
<path id="Vector_7" d="M108.435 149.85C90.1064 149.85 72.8616 146.065 59.8741 139.182C46.6992 132.21 39.4485 122.861 39.4485 112.874C39.4485 100.422 50.8038 89.0315 69.9446 82.1627C53.1026 72.766 27.8639 71.9186 14.0292 72.2867C10.3135 72.384 6.78541 71.0088 4.12542 68.4113C1.46543 65.8208 0 62.3482 0 58.6395C0 54.9308 1.5071 51.3541 4.23654 48.7496C6.96599 46.1521 10.5358 44.8187 14.3001 44.9992C31.8713 45.8465 62.9647 50.3956 84.46 70.6199C71.9934 50.2081 59.3046 33.5189 50.4565 22.6845C47.866 19.5105 46.8103 15.3782 47.5673 11.35C48.3244 7.3218 50.7968 3.84923 54.3666 1.82125C60.2908 -1.54021 67.7083 -0.144232 72.0073 5.14797C81.7097 17.0797 99.2462 42.0753 108.198 75.9191C108.275 75.9191 108.358 75.9191 108.435 75.9191C126.763 75.9191 144.008 79.7042 156.995 86.5868C170.17 93.5597 177.421 102.908 177.421 112.895C177.421 122.882 170.163 132.223 156.995 139.203C144.008 146.079 126.763 149.871 108.435 149.871V149.85ZM19.1131 70.356C25.7804 70.356 34.2118 70.6963 42.7613 71.9325C55.075 73.7105 65.1247 76.9608 72.6393 81.5863C72.9449 81.7738 73.1185 82.128 73.0769 82.4822C73.0352 82.8434 72.7921 83.142 72.4449 83.2601C63.0272 86.4062 55.1792 90.7747 49.7412 95.8794C44.2198 101.061 41.3028 106.936 41.3028 112.874C41.3028 122.139 48.2063 130.897 60.7423 137.536C73.4658 144.273 90.3981 147.982 108.428 147.982C126.457 147.982 143.397 144.273 156.113 137.536C168.649 130.897 175.553 122.139 175.553 112.874C175.553 103.609 168.649 94.8515 156.113 88.212C143.39 81.4752 126.457 77.7665 108.428 77.7665C108.205 77.7665 107.99 77.7665 107.768 77.7665H107.483C107.059 77.7665 106.691 77.4817 106.58 77.0719C97.7738 43.2074 80.2304 18.1979 70.5627 6.30087C66.8401 1.71707 60.4089 0.508612 55.2834 3.41863C52.1928 5.16881 50.0468 8.183 49.3939 11.6695C48.7411 15.1559 49.6509 18.7396 51.9011 21.4899C61.8188 33.637 76.5425 53.1112 90.3981 76.9261C90.6412 77.3428 90.5231 77.8776 90.1272 78.1554C89.7313 78.4332 89.1896 78.3637 88.8771 77.9887C68.0208 53.0139 33.1423 47.7565 14.2098 46.8397C10.9594 46.68 7.8758 47.8329 5.52139 50.0761C3.16004 52.3264 1.8613 55.3614 1.8613 58.6256C1.8613 61.8899 3.12532 64.8346 5.42416 67.0709C7.72995 69.3142 10.7719 70.5088 13.9875 70.4185C15.5363 70.3768 17.2587 70.349 19.12 70.349L19.1131 70.356Z" fill="black"/>
</g>
<g id="Group_4">
<g id="Group_5">
<path id="Vector_8" d="M99.3502 124.129C105.909 124.129 111.226 118.812 111.226 112.253C111.226 105.694 105.909 100.377 99.3502 100.377C92.7912 100.377 87.474 105.694 87.474 112.253C87.474 118.812 92.7912 124.129 99.3502 124.129Z" fill="white"/>
<path id="Vector_9" d="M99.3503 125.061C92.2871 125.061 86.5435 119.317 86.5435 112.254C86.5435 105.191 92.2871 99.4473 99.3503 99.4473C106.414 99.4473 112.157 105.191 112.157 112.254C112.157 119.317 106.414 125.061 99.3503 125.061ZM99.3503 101.309C93.315 101.309 88.4048 106.219 88.4048 112.254C88.4048 118.289 93.315 123.2 99.3503 123.2C105.386 123.2 110.296 118.289 110.296 112.254C110.296 106.219 105.386 101.309 99.3503 101.309Z" fill="black"/>
</g>
<path id="Vector_10" d="M110.567 108.351C108.907 105.795 106.032 104.094 102.753 104.094C97.621 104.094 93.4608 108.254 93.4608 113.386C93.4608 118.519 97.621 122.679 102.753 122.679C103.885 122.679 104.969 122.478 105.969 122.109C109.136 119.977 111.22 116.359 111.22 112.254C111.22 110.886 110.99 109.573 110.56 108.351" fill="black"/>
</g>
<g id="Group_6">
<g id="Group_7">
<path id="Vector_11" d="M135.701 124.129C142.26 124.129 147.577 118.812 147.577 112.253C147.577 105.694 142.26 100.377 135.701 100.377C129.142 100.377 123.825 105.694 123.825 112.253C123.825 118.812 129.142 124.129 135.701 124.129Z" fill="white"/>
<path id="Vector_12" d="M135.701 125.061C128.638 125.061 122.894 119.317 122.894 112.254C122.894 105.191 128.638 99.4473 135.701 99.4473C142.764 99.4473 148.508 105.191 148.508 112.254C148.508 119.317 142.764 125.061 135.701 125.061ZM135.701 101.309C129.666 101.309 124.756 106.219 124.756 112.254C124.756 118.289 129.666 123.2 135.701 123.2C141.737 123.2 146.647 118.289 146.647 112.254C146.647 106.219 141.737 101.309 135.701 101.309Z" fill="black"/>
</g>
<path id="Vector_13" d="M146.918 108.351C145.258 105.795 142.382 104.094 139.104 104.094C133.972 104.094 129.812 108.254 129.812 113.386C129.812 118.519 133.972 122.679 139.104 122.679C140.236 122.679 141.32 122.478 142.32 122.109C145.487 119.977 147.571 116.359 147.571 112.254C147.571 110.886 147.341 109.573 146.911 108.351" fill="black"/>
</g>
<g id="Group_8">
<path id="Vector_14" d="M163.982 169.944L122.269 164.388C121.596 164.298 121.186 163.59 121.457 162.964L144.167 109.376C144.348 108.945 144.792 108.695 145.258 108.758L186.97 114.314C187.644 114.404 188.054 115.112 187.783 115.737L165.072 169.326C164.892 169.757 164.447 170.007 163.982 169.944Z" fill="#00B1E7"/>
<path id="Vector_15" d="M164.121 170.88C164.038 170.88 163.947 170.88 163.864 170.866L122.151 165.31C121.54 165.227 121.012 164.873 120.707 164.338C120.401 163.803 120.367 163.171 120.603 162.601L143.313 109.013C143.654 108.2 144.508 107.714 145.376 107.832L187.089 113.388C187.7 113.471 188.228 113.826 188.533 114.36C188.839 114.895 188.873 115.527 188.637 116.097L165.927 169.686C165.614 170.415 164.899 170.88 164.121 170.88ZM145.126 109.666C145.084 109.666 145.05 109.693 145.029 109.728L122.318 163.317C122.318 163.317 122.297 163.365 122.318 163.407C122.346 163.449 122.381 163.456 122.394 163.456L164.107 169.012C164.156 169.012 164.197 168.991 164.218 168.949L186.929 115.361C186.929 115.361 186.95 115.312 186.929 115.27C186.901 115.229 186.866 115.222 186.852 115.222L145.14 109.666C145.14 109.666 145.133 109.666 145.126 109.666Z" fill="black"/>
</g>
<g id="Group_9">
<path id="Vector_16" d="M115.352 118.773C110.275 119.21 103.122 120.564 98.2669 124.593C96.4334 124.183 94.3985 124.634 92.8844 126.079C91.8427 124.6 90.2036 123.752 88.4951 123.634V123.62C88.4951 123.62 85.4601 123.28 82.4181 123.738C81.286 123.009 79.9178 122.69 78.5774 122.822C78.5774 122.822 67.6735 123.454 64.201 138.622C64.076 139.108 63.9787 139.601 63.8954 140.087C63.8954 140.101 63.8954 140.115 63.8884 140.129C62.9995 145.817 65.1941 151.568 69.4723 155.915L55.8251 175.952C52.1442 181.362 53.5402 188.731 58.9504 192.419C64.3607 196.1 71.7295 194.704 75.4174 189.294L93.7109 162.437C100.198 160.652 105.351 156.131 107.025 149.894C108.261 145.289 107.386 140.546 104.941 136.448C108.337 131.954 113.102 130.399 116.637 129.899C119.401 129.51 121.443 127.135 121.443 124.35C121.443 121.058 118.623 118.481 115.352 118.766V118.773Z" fill="white"/>
<path id="Vector_17" d="M65.5968 195.411C63.0549 195.411 60.5755 194.654 58.4294 193.189C55.6097 191.265 53.7067 188.362 53.0678 185.007C52.4288 181.653 53.1372 178.257 55.061 175.43L68.2846 156.011C64.0411 151.407 62.1104 145.628 62.9646 140.037C62.9646 140.01 62.9716 139.982 62.9785 139.947V139.926C63.0619 139.426 63.166 138.912 63.298 138.405C65.1593 130.273 69.1597 126.224 72.1878 124.258C75.3964 122.175 78.1953 121.924 78.5009 121.904C79.9316 121.758 81.3762 122.07 82.6125 122.779C85.6128 122.376 88.4672 122.688 88.5922 122.702C88.6408 122.702 88.6895 122.716 88.7311 122.73C90.3841 122.89 91.8842 123.619 93.0024 124.786C94.447 123.765 96.2388 123.334 98.0098 123.612C103.024 119.653 110.129 118.299 115.262 117.855C117.081 117.695 118.901 118.32 120.248 119.556C121.596 120.792 122.366 122.543 122.366 124.369C122.366 127.606 119.957 130.391 116.762 130.842C113.616 131.287 109.261 132.641 106.052 136.551C108.455 140.871 109.115 145.677 107.914 150.157C106.247 156.379 101.163 161.262 94.2803 163.262L76.1743 189.841C74.2505 192.661 71.3474 194.564 67.9929 195.203C67.1873 195.356 66.3816 195.432 65.5829 195.432L65.5968 195.411ZM64.819 140.26C64.819 140.26 64.819 140.274 64.819 140.281C63.9995 145.531 65.9372 150.99 70.1459 155.275C70.4584 155.595 70.5001 156.081 70.2501 156.449L56.6029 176.486C54.9638 178.896 54.3526 181.799 54.9013 184.667C55.443 187.535 57.0682 190.015 59.4851 191.654C61.8951 193.293 64.7981 193.904 67.6665 193.355C70.5348 192.814 73.0143 191.188 74.6533 188.772L92.9468 161.915C93.0719 161.734 93.2524 161.602 93.4677 161.54C99.8712 159.776 104.601 155.338 106.129 149.656C107.254 145.476 106.545 140.954 104.142 136.933C103.948 136.607 103.969 136.197 104.198 135.898C107.809 131.113 112.886 129.502 116.505 128.988C118.79 128.668 120.512 126.675 120.512 124.355C120.512 123.029 119.977 121.806 118.998 120.911C118.019 120.015 116.748 119.577 115.428 119.695C110.442 120.119 103.517 121.445 98.8572 125.307C98.6349 125.487 98.3432 125.564 98.0585 125.501C96.4264 125.133 94.7248 125.605 93.5233 126.758C93.3288 126.946 93.058 127.036 92.794 127.008C92.5232 126.981 92.2801 126.842 92.1273 126.619C91.28 125.418 89.9326 124.668 88.4325 124.564C88.363 124.564 88.3005 124.55 88.238 124.529C87.5921 124.473 85.0571 124.279 82.5638 124.661C82.3416 124.696 82.1124 124.647 81.9179 124.522C80.9665 123.911 79.8136 123.633 78.6746 123.751C78.6607 123.751 78.6468 123.751 78.6329 123.751C78.6121 123.751 76.0354 123.939 73.1115 125.869C69.1736 128.467 66.4789 132.828 65.1107 138.829C65.1107 138.836 65.1107 138.843 65.1107 138.85C64.9926 139.308 64.8954 139.774 64.8259 140.232C64.8259 140.239 64.8259 140.246 64.8259 140.253L64.819 140.26Z" fill="black"/>
</g>
<g id="Group_10">
<path id="Vector_18" d="M69.479 156.853C69.2359 156.853 68.9998 156.763 68.8192 156.575C64.2007 151.881 62.0755 145.845 62.9784 140.018C62.9784 140.004 62.9784 139.997 62.9784 139.984C62.9784 139.97 62.9784 139.963 62.9784 139.956C63.0617 139.428 63.1728 138.907 63.2978 138.393C63.3951 137.983 63.7632 137.678 64.2007 137.678C64.7147 137.678 65.1314 138.094 65.1314 138.608C65.1314 138.692 65.1175 138.789 65.0966 138.872C64.9855 139.31 64.8883 139.761 64.8188 140.22C64.8188 140.234 64.8188 140.254 64.8188 140.268C64.8188 140.268 64.8188 140.282 64.8188 140.289C63.9993 145.533 65.937 150.999 70.1458 155.284C70.5069 155.652 70.5 156.235 70.1319 156.596C69.9513 156.777 69.7152 156.86 69.479 156.86V156.853Z" fill="black"/>
<path id="Vector_19" d="M93.7107 163.369C93.3009 163.369 92.9259 163.098 92.8148 162.689C92.6758 162.196 92.9675 161.682 93.4676 161.543C99.871 159.779 104.608 155.341 106.129 149.66C107.254 145.472 106.545 140.957 104.149 136.929C103.885 136.492 104.031 135.915 104.469 135.651C104.906 135.387 105.483 135.533 105.74 135.971C108.4 140.43 109.178 145.458 107.92 150.132C106.226 156.459 101.003 161.39 93.9607 163.328C93.8774 163.349 93.794 163.362 93.7107 163.362V163.369Z" fill="black"/>
<path id="Vector_20" d="M104.941 137.387C104.746 137.387 104.552 137.324 104.378 137.199C103.969 136.887 103.885 136.31 104.198 135.9C107.809 131.115 112.886 129.504 116.505 128.997C117.616 128.844 118.63 128.288 119.373 127.434C120.109 126.58 120.512 125.497 120.512 124.371C120.512 123.045 119.977 121.823 118.998 120.927C118.019 120.031 116.755 119.6 115.428 119.711C110.442 120.135 103.51 121.454 98.857 125.316C98.4611 125.642 97.8777 125.587 97.5513 125.191C97.2249 124.795 97.2805 124.212 97.6763 123.885C102.698 119.718 110.018 118.308 115.275 117.857C117.095 117.704 118.915 118.322 120.262 119.558C121.609 120.795 122.38 122.545 122.38 124.371C122.38 125.941 121.811 127.462 120.783 128.657C119.748 129.851 118.324 130.629 116.769 130.844C113.497 131.303 108.914 132.754 105.684 137.032C105.504 137.275 105.226 137.4 104.941 137.4V137.387Z" fill="black"/>
<path id="Vector_21" d="M88.4602 144.173C86.8837 144.173 85.3279 143.624 84.0848 142.596C83.6333 142.221 83.2375 141.798 82.9041 141.332C82.6055 140.916 82.6957 140.332 83.1124 140.033C83.5292 139.735 84.1125 139.825 84.4112 140.242C84.6543 140.575 84.939 140.888 85.2724 141.159C86.5503 142.214 88.2032 142.568 89.8006 142.124C90.5924 141.902 91.3147 141.492 91.8981 140.936C92.5162 140.353 92.9537 139.631 93.2037 138.804C93.2524 138.644 93.301 138.478 93.3426 138.318C94.2386 134.97 94.0927 131.567 92.8982 128.199C92.8357 128.025 92.7731 127.852 92.7037 127.678C92.6412 127.525 92.5856 127.393 92.5231 127.275C92.4051 127.039 92.28 126.817 92.1342 126.608C91.2869 125.407 89.9395 124.664 88.4394 124.553C87.9254 124.518 87.5434 124.074 87.5782 123.56C87.6129 123.046 88.0643 122.657 88.5713 122.698C90.634 122.844 92.4884 123.879 93.6552 125.532C93.8566 125.824 94.0372 126.129 94.1969 126.442C94.2802 126.602 94.3566 126.782 94.44 126.997C94.5164 127.192 94.5858 127.379 94.6553 127.574C95.9749 131.303 96.1415 135.082 95.1414 138.79C95.0928 138.971 95.0442 139.151 94.9887 139.332C94.6483 140.457 94.0302 141.478 93.1899 142.277C92.3912 143.041 91.3911 143.603 90.3076 143.909C89.7034 144.076 89.0853 144.159 88.4741 144.159L88.4602 144.173Z" fill="black"/>
<path id="Vector_22" d="M97.3291 144.998C95.7526 144.998 94.2038 144.456 92.9606 143.422C92.5092 143.047 92.1133 142.623 91.7799 142.158C91.4813 141.741 91.5716 141.157 91.9883 140.859C92.405 140.56 92.9884 140.65 93.2871 141.067C93.5301 141.401 93.8149 141.713 94.1482 141.984C95.44 143.054 97.1763 143.408 98.7876 142.915C100.399 142.428 101.6 141.234 102.08 139.63C102.309 138.879 102.482 138.109 102.594 137.352C102.732 136.456 102.802 135.546 102.788 134.636C102.767 132.761 102.427 130.872 101.774 129.017C101.712 128.844 101.649 128.67 101.58 128.496C100.982 126.948 99.6974 125.85 98.0653 125.482C96.4263 125.121 94.7316 125.586 93.5301 126.739C93.162 127.094 92.5717 127.08 92.2175 126.712C91.8633 126.343 91.8772 125.753 92.2453 125.399C93.8982 123.815 96.2248 123.176 98.4681 123.677C100.684 124.17 102.496 125.725 103.316 127.837C103.385 128.024 103.462 128.212 103.524 128.406C104.246 130.455 104.622 132.545 104.649 134.615C104.663 135.622 104.587 136.643 104.434 137.636C104.302 138.484 104.115 139.331 103.858 140.164C103.205 142.338 101.51 144.033 99.3224 144.693C98.6626 144.894 97.9959 144.991 97.3291 144.991V144.998Z" fill="black"/>
<path id="Vector_23" d="M79.5704 143.345C79.1259 143.345 78.6814 143.304 78.2439 143.214C77.1396 142.998 76.084 142.498 75.195 141.762C73.0837 140.012 72.2225 137.192 73.0003 134.581C73.167 134.018 73.2364 133.463 73.2017 132.914C73.1739 132.4 73.5629 131.962 74.0768 131.935C74.5908 131.907 75.0283 132.296 75.0561 132.81C75.0977 133.567 75.0075 134.338 74.7783 135.109C74.2088 137.005 74.8408 139.06 76.3757 140.331C77.0285 140.873 77.7786 141.227 78.5912 141.387C80.1885 141.699 81.8345 141.227 83.0013 140.109C83.6194 139.526 84.057 138.81 84.3001 137.977C84.4459 137.491 84.5709 137.005 84.6682 136.518C85.2932 133.49 85.064 130.407 83.9945 127.372C83.932 127.198 83.8695 127.024 83.8 126.851C83.6542 126.469 83.4597 126.115 83.2305 125.781L83.2097 125.746C83.1819 125.705 83.1472 125.663 83.1194 125.621C83.1194 125.621 83.1125 125.608 83.1055 125.601C82.7721 125.17 82.3693 124.802 81.9109 124.503C80.9595 123.892 79.8066 123.614 78.6676 123.739C78.6189 123.739 78.6259 123.746 78.5842 123.739C78.0842 123.76 77.6605 123.399 77.6119 122.899C77.5633 122.385 77.9383 121.934 78.4453 121.885C78.4661 121.885 78.487 121.885 78.5009 121.885C80.0427 121.732 81.6123 122.107 82.911 122.941C83.55 123.35 84.1056 123.864 84.564 124.455C84.6126 124.517 84.6612 124.58 84.7098 124.642L84.7446 124.684C85.071 125.149 85.3349 125.649 85.5433 126.17C85.6127 126.358 85.6891 126.545 85.7516 126.74C86.9392 130.101 87.1893 133.511 86.4947 136.886C86.3836 137.428 86.2447 137.97 86.085 138.505C85.7447 139.63 85.1265 140.651 84.2862 141.449C83.0083 142.672 81.3067 143.332 79.5635 143.332L79.5704 143.345Z" fill="black"/>
<path id="Vector_24" d="M63.8952 141.061C63.6105 141.061 63.3396 140.929 63.166 140.707C62.9993 140.491 62.9298 140.214 62.9854 139.95C62.9854 139.943 62.9854 139.936 62.9854 139.929C63.0826 139.394 63.1868 138.894 63.2979 138.415C63.2979 138.408 63.2979 138.394 63.2979 138.387C64.305 134.019 66.6038 128.06 71.8752 124.469C75.0838 122.281 77.9314 121.955 78.4731 121.906C78.5425 121.906 78.5773 121.906 78.5773 121.906V123.768C78.5773 123.768 78.5911 123.768 78.6189 123.768C78.0077 123.823 68.3054 124.9 65.1106 138.825C65.1106 138.839 65.1106 138.852 65.1037 138.866C65.0064 139.304 64.9092 139.762 64.8189 140.248C64.8189 140.262 64.8189 140.283 64.812 140.297C64.7425 140.742 64.3605 141.075 63.8952 141.075V141.061Z" fill="black"/>
<path id="Vector_25" d="M82.4249 124.672C81.9734 124.672 81.5775 124.345 81.5081 123.88C81.4317 123.373 81.779 122.901 82.286 122.824C85.4113 122.352 88.4741 122.686 88.5991 122.699C89.0714 122.755 89.4256 123.151 89.4256 123.623C89.4256 124.137 89.0089 124.561 88.4949 124.561C88.4185 124.561 88.3491 124.554 88.2796 124.54C87.724 124.484 85.1196 124.276 82.5568 124.665C82.5082 124.672 82.4596 124.679 82.4179 124.679L82.4249 124.672Z" fill="black"/>
<path id="Vector_26" d="M95.6277 150.679C91.9815 150.679 89.0159 147.713 89.0159 144.067C89.0159 143.657 89.0506 143.248 89.127 142.852C89.2242 142.345 89.7104 142.018 90.2104 142.109C90.7174 142.206 91.0439 142.692 90.9536 143.192C90.898 143.477 90.8702 143.769 90.8702 144.067C90.8702 146.686 93.0024 148.818 95.6207 148.818C96.1346 148.818 96.5514 149.234 96.5514 149.748C96.5514 150.262 96.1346 150.679 95.6207 150.679H95.6277Z" fill="black"/>
<path id="Vector_27" d="M92.0439 156.729C91.53 156.729 91.1133 156.313 91.1133 155.799C91.1133 149.048 95.5512 148.826 95.5929 148.819C96.0999 148.805 96.5374 149.201 96.5513 149.715C96.5652 150.222 96.1763 150.652 95.6693 150.673C95.5304 150.68 92.9746 150.937 92.9746 155.792C92.9746 156.306 92.5579 156.722 92.0439 156.722V156.729Z" fill="black"/>
<path id="Vector_28" d="M65.6106 195.406C63.1451 195.406 60.6588 194.698 58.471 193.219C58.4571 193.212 58.4432 193.205 58.4294 193.191C52.6093 189.225 51.0953 181.259 55.061 175.439L68.7082 155.402C68.9999 154.979 69.5763 154.867 70 155.159C70.4236 155.451 70.5348 156.027 70.2431 156.451L56.5958 176.488C53.2135 181.453 54.4915 188.239 59.4364 191.635C59.4503 191.642 59.4642 191.649 59.4711 191.656C61.8811 193.295 64.7842 193.906 67.6525 193.357C70.5209 192.816 73.0003 191.191 74.6463 188.781L92.9398 161.924C93.2315 161.5 93.8079 161.389 94.2316 161.681C94.6553 161.972 94.7664 162.549 94.4747 162.972L76.1812 189.829C73.7087 193.455 69.6874 195.406 65.6037 195.406H65.6106Z" fill="black"/>
</g>
<g id="Group_11">
<path id="Vector_29" d="M178.733 136.961C178.733 136.961 178.761 136.982 178.775 136.989C184.109 140.753 187.651 147.323 187.651 154.803C187.651 166.499 179.004 175.972 168.336 175.972C166.371 175.972 164.482 175.652 162.697 175.055C162.364 174.951 162.037 174.826 161.718 174.701L161.69 174.763C158.058 173.18 155.141 170.853 152.87 168.464C152.147 167.707 151.494 166.943 150.904 166.193C148.202 162.769 149.494 157.713 153.522 156.025L153.578 156.005C154.196 155.748 154.828 155.588 155.467 155.525C155.03 154.032 155.12 152.393 155.821 150.9L155.849 150.844C157.03 148.33 159.523 146.976 162.037 147.059C161.968 145.99 162.162 144.899 162.641 143.878L162.669 143.823C164.517 139.871 169.621 138.788 172.934 141.621C173.844 142.399 174.768 143.274 175.678 144.253C175.684 144.253 175.691 144.267 175.698 144.274L178.789 136.989" fill="white"/>
<path id="Vector_30" d="M168.33 176.91C166.302 176.91 164.308 176.583 162.391 175.944C162.162 175.868 161.926 175.785 161.683 175.694C161.558 175.694 161.433 175.667 161.315 175.618C157.988 174.173 154.919 171.979 152.196 169.103C151.501 168.374 150.821 167.589 150.175 166.763C148.703 164.895 148.203 162.512 148.793 160.214C149.383 157.922 150.981 156.081 153.161 155.164L153.21 155.144C153.578 154.991 153.96 154.866 154.349 154.769C154.134 153.324 154.349 151.838 154.974 150.504C154.974 150.497 154.974 150.49 154.981 150.483L155.002 150.442C156.141 148.018 158.467 146.407 161.1 146.157C161.162 145.233 161.391 144.323 161.787 143.483C161.787 143.483 161.787 143.469 161.794 143.462L161.815 143.42C162.822 141.281 164.718 139.774 167.031 139.274C169.351 138.774 171.719 139.371 173.525 140.92C174.164 141.469 174.782 142.038 175.379 142.628L177.81 136.899C177.824 136.711 177.893 136.531 178.025 136.371C178.344 135.989 178.907 135.933 179.296 136.232C179.303 136.232 179.31 136.246 179.324 136.253C185.116 140.35 188.575 147.289 188.575 154.817C188.575 167.006 179.497 176.917 168.337 176.917L168.33 176.91ZM161.746 173.777C161.85 173.777 161.954 173.805 162.058 173.847C162.371 173.972 162.676 174.083 162.975 174.18C164.704 174.764 166.503 175.055 168.33 175.055C178.463 175.055 186.713 165.978 186.713 154.817C186.713 148.296 183.908 142.274 179.164 138.461L176.539 144.656C176.421 144.941 176.164 145.15 175.858 145.205C175.553 145.261 175.24 145.17 175.025 144.948C175.025 144.948 175.018 144.941 175.011 144.934C174.997 144.92 174.983 144.906 174.976 144.9C174.157 144.011 173.261 143.149 172.316 142.344C170.955 141.177 169.17 140.726 167.427 141.101C165.683 141.476 164.253 142.615 163.503 144.233C163.503 144.24 163.496 144.247 163.489 144.254L163.468 144.295C163.072 145.143 162.898 146.08 162.954 147.011C162.968 147.275 162.878 147.532 162.697 147.719C162.516 147.907 162.266 148.011 162.003 148.004C159.731 147.935 157.648 149.206 156.69 151.254C156.69 151.261 156.683 151.268 156.676 151.275L156.655 151.317C156.078 152.553 155.974 153.956 156.356 155.276C156.433 155.54 156.391 155.824 156.238 156.053C156.085 156.283 155.835 156.428 155.557 156.456C154.995 156.512 154.453 156.651 153.932 156.866L153.884 156.887C152.238 157.574 151.036 158.963 150.592 160.686C150.147 162.415 150.522 164.214 151.633 165.624C152.245 166.402 152.891 167.145 153.543 167.832C156.009 170.437 158.766 172.437 161.753 173.784L161.746 173.777Z" fill="black"/>
</g>
<g id="Group_12">
<path id="Vector_31" d="M175.684 145.209C175.566 145.209 175.441 145.188 175.323 145.133C174.851 144.931 174.629 144.39 174.83 143.917L177.921 136.632C178.122 136.16 178.664 135.937 179.136 136.139C179.608 136.34 179.831 136.882 179.629 137.354L176.539 144.64C176.386 144.994 176.046 145.209 175.684 145.209Z" fill="black"/>
<path id="Vector_32" d="M181.046 153.669C180.671 153.669 180.324 153.446 180.178 153.071C179.053 150.161 177.309 147.418 175.004 144.911C174.99 144.897 174.983 144.89 174.969 144.876C174.149 143.987 173.253 143.126 172.309 142.32C170.948 141.154 169.163 140.702 167.42 141.077C165.676 141.452 164.246 142.591 163.496 144.209C163.496 144.216 163.489 144.223 163.482 144.23L163.461 144.272C163.065 145.119 162.891 146.057 162.947 146.987C162.982 147.501 162.593 147.939 162.079 147.974C161.565 148.008 161.127 147.619 161.093 147.106C161.016 145.855 161.252 144.598 161.78 143.473C161.78 143.473 161.78 143.459 161.787 143.452L161.808 143.411C162.815 141.272 164.711 139.765 167.024 139.264C169.343 138.764 171.712 139.362 173.517 140.91C174.511 141.758 175.455 142.668 176.323 143.605C176.33 143.612 176.344 143.626 176.351 143.633C176.351 143.633 176.358 143.64 176.365 143.647C178.837 146.321 180.699 149.272 181.914 152.405C182.102 152.884 181.859 153.419 181.386 153.606C181.275 153.648 181.164 153.669 181.053 153.669H181.046Z" fill="black"/>
<path id="Vector_33" d="M161.905 165.468C161.53 165.468 161.183 165.246 161.037 164.871C160.301 162.968 158.919 161.135 156.926 159.433C155.793 158.461 154.981 157.197 154.564 155.773C154.05 154.016 154.196 152.148 154.967 150.495C154.967 150.488 154.967 150.481 154.974 150.474L154.995 150.432C156.273 147.717 159.037 146.022 162.044 146.119C163.767 146.175 165.378 146.8 166.697 147.932C168.823 149.752 170.649 151.759 172.128 153.891C172.128 153.891 172.128 153.898 172.135 153.905C172.517 154.453 172.885 155.03 173.226 155.606C173.483 156.051 173.337 156.62 172.899 156.877C172.455 157.134 171.885 156.988 171.628 156.551C171.309 156.009 170.969 155.474 170.607 154.96C170.607 154.96 170.607 154.953 170.601 154.946C169.211 152.946 167.489 151.064 165.489 149.342C164.496 148.488 163.287 148.015 161.989 147.974C159.717 147.904 157.634 149.175 156.675 151.224C156.675 151.231 156.669 151.238 156.662 151.245L156.641 151.286C156.064 152.523 155.96 153.926 156.342 155.245C156.655 156.322 157.273 157.28 158.127 158.016C160.349 159.919 161.912 162.003 162.759 164.197C162.947 164.677 162.704 165.211 162.232 165.399C162.12 165.441 162.009 165.461 161.898 165.461L161.905 165.468Z" fill="black"/>
<path id="Vector_34" d="M161.683 175.686C161.558 175.686 161.433 175.658 161.315 175.609C157.988 174.165 154.918 171.97 152.196 169.095C151.501 168.366 150.821 167.581 150.175 166.754C148.702 164.886 148.202 162.504 148.793 160.205C149.383 157.913 150.98 156.073 153.161 155.156L153.21 155.135C153.897 154.843 154.627 154.663 155.37 154.586C155.877 154.538 156.335 154.906 156.384 155.42C156.432 155.934 156.064 156.385 155.55 156.441C154.988 156.496 154.446 156.635 153.925 156.85L153.877 156.871C152.231 157.559 151.029 158.948 150.585 160.67C150.14 162.4 150.515 164.198 151.626 165.608C152.238 166.386 152.883 167.129 153.536 167.817C156.002 170.421 158.759 172.421 161.745 173.769C161.864 173.769 161.975 173.797 162.093 173.852C162.558 174.061 162.773 174.609 162.558 175.081L162.53 175.144C162.377 175.491 162.037 175.693 161.683 175.693V175.686Z" fill="black"/>
<path id="Vector_35" d="M168.33 176.907C166.302 176.907 164.308 176.581 162.391 175.942C162.058 175.83 161.711 175.705 161.364 175.567C160.884 175.372 160.655 174.83 160.85 174.358C161.044 173.879 161.586 173.65 162.058 173.844C162.371 173.969 162.676 174.08 162.975 174.177C164.704 174.761 166.503 175.053 168.33 175.053C178.462 175.053 186.713 165.975 186.713 154.814C186.713 147.883 183.546 141.507 178.233 137.757C178.226 137.757 178.219 137.743 178.206 137.736C178.178 137.715 178.15 137.695 178.129 137.674C177.74 137.34 177.685 136.757 178.018 136.361C178.337 135.979 178.9 135.924 179.289 136.222C179.296 136.222 179.31 136.236 179.317 136.243C185.109 140.341 188.568 147.279 188.568 154.807C188.568 166.996 179.49 176.907 168.33 176.907Z" fill="black"/>
</g>
</g>
</g>
</svg>
